<svg width="2000" height="2000" xmlns="http://www.w3.org/2000/svg">
 <!-- Created with Method Draw - http://github.com/duopixel/Method-Draw/ -->

 <g>
  <title>background</title>
  <rect x="-1" y="-1" width="2002" height="2002" id="canvas_background" fill="none"/>
  <g id="canvasGrid" display="none">
   <rect id="svg_1" width="100%" height="100%" x="0" y="0" stroke-width="0" fill="url(#gridpattern)"/>
  </g>
 </g>
 <g>
  <title>Layer 1</title>
  <path fill="#5f00bf" stroke-width="1.5" d="m196.052438,1.837733l28.42101,0.00007l-3.15789,52.63151l34.73679,2.10526l0,26.31575c0.00001,1.05256 -12.63155,1.05256 -12.63155,1.05256c0,0 -2.10527,10.5263 -2.10527,10.5263c0,0 12.63157,0 12.63156,-1.05256c0.00001,1.05256 0.00001,24.21042 0,23.15786c0.00001,1.05256 -31.5789,-1.0527 -31.5789,-2.10526c0,1.05256 0,-31.57897 0,-32.63153c0,1.05256 -35.78942,-0.00007 -35.78942,-1.05263c0,1.05256 0,-8.42111 0,-9.47367c0,1.05256 -11.57893,1.05256 -11.57893,0c0,1.05256 -1.05263,-15.78952 -1.05263,-16.84208c0,1.05256 21.0526,-0.00007 21.0526,-1.05263l1.05263,-51.57895z" id="svg_3"/>
  <text fill="#ff0000" stroke="#000" stroke-width="0" x="183.420877" y="47.100831" id="svg_4" font-size="24" font-family="Helvetica, Arial, sans-serif" text-anchor="start" xml:space="preserve">FAIR</text>
  <path fill="#5f00bf" stroke-width="1.5" d="m409.501278,458.121423c0,0 99.99936,3.81677 99.23601,3.81676c0.76335,0.00001 0,29.00746 -0.76335,29.00745c0.76335,0.00001 -99.99937,-5.34347 -100.76272,-5.34348l2.29006,-27.48073z" id="svg_6"/>
  <text fill="#ff0000" stroke-width="0" x="433.165246" y="480.258684" id="svg_7" font-size="24" font-family="Helvetica, Arial, sans-serif" text-anchor="start" xml:space="preserve">EHS</text>
  <path fill="#5f00bf" stroke-width="1.5" d="m625.530438,493.235703l0,24.42731l0,-24.42731z" id="svg_8"/>
  <path fill="#5f00bf" stroke-width="1.5" d="m646.904348,493.235703l-21.37391,-0.00001l0,23.66397c0,0.00001 -5.34347,3.05343 -5.34347,2.29007c0,-0.76335 0,27.48074 0,27.48073c0,0.00001 6.87018,1.52672 6.87018,0.76337c0,-0.76336 -0.76335,20.61055 -0.76335,20.61054c0,0.00001 21.37391,2.29008 21.37391,2.29007c0,0.00001 -0.76336,-7.63353 -0.76336,-7.63353c0,0 71.75528,-0.76336 72.51863,-0.76336c0.76335,0 -1.52671,-64.12173 -1.52671,-64.12173c0,0 -70.99192,3.05342 -70.99192,3.05342l0,-7.63354z" id="svg_9"/>
  <text fill="#ff0000" stroke-width="0" x="645.377645" y="534.456814" id="svg_10" font-size="24" font-family="Helvetica, Arial, sans-serif" text-anchor="start" xml:space="preserve">AMG</text>
  <path fill="#5f00bf" stroke-width="1.5" d="m624.003738,726.058653c0,0 0.76335,-62.59502 0.76335,-62.59503c0,0.00001 24.42733,0.00001 24.42733,0c0,0.00001 3.05341,8.3969 3.05341,8.39689c0,0.00001 48.85465,-3.81676 48.85465,-3.81677c0,0.00001 6.10684,-9.92359 6.10684,-9.92359c0,0 6.87018,-0.76335 6.87018,-0.76337c0,0.00002 1.52671,8.39691 1.52671,7.63356c0,-0.76336 31.29751,-1.52671 31.29751,-1.52672c0,0.00001 0.76336,6.10684 0.76336,6.10684c0,0 55.72483,-1.52671 55.72483,-1.52672c0,0.00001 0.76336,-5.34347 0.76335,-5.34348c0.00001,0.00001 25.19069,-0.76334 25.19068,-0.76335c0.00001,0.00001 0.76336,4.58013 0.76336,4.58013c0,0 7.63354,0 7.63354,-0.00001c0,0.00001 1.52671,9.92362 1.52671,9.92362c0,0 -9.9236,0 -9.92361,-0.00002c0.00001,0.00002 3.81678,46.56461 3.81677,46.56459c0.00001,0.00002 -39.6944,0.76337 -38.93104,0.76337c0.76335,0 3.05341,-35.87763 3.05341,-35.87763c0,0 -154.1975,-1.52671 -154.1975,-1.52673c0,0.00002 0,38.93107 0,38.16771l-19.08384,1.52671z" id="svg_11"/>
  <text fill="#ff0000" stroke-width="0" x="569.805603" y="691.707728" id="svg_12" font-size="24" font-family="Helvetica, Arial, sans-serif" text-anchor="start" xml:space="preserve">VET</text>
  <path fill="#5f00bf" stroke-width="1.5" d="m841.229388,755.159733l-0.65572,27.21312c0.32785,0.32785 5.57375,0.65572 5.57375,0.65572c0,0 0.32787,6.22951 0.00002,5.90166c0.32785,0.32785 -3.93445,0.65572 -4.26229,0.32787c0.32784,0.32785 0.98358,6.22949 0.65574,5.90164c0.32784,0.32785 3.9344,0.65572 4.26227,0.65572c0.32787,0 -0.65574,20.9836 -0.98359,20.65575c0.32785,0.32785 -42.95083,0.98358 -43.27868,0.65573c0.32785,0.32785 0.98359,38.36063 0.98359,38.36063c0,0 15.08196,0.32787 14.75412,0.00002c0.32784,0.32785 2.29506,-1.96723 2.29506,-1.96723c0,0 26.88523,-0.32787 26.88523,-0.32787c0,0 2.29509,7.86885 1.96724,7.541c0.32785,0.32785 31.14751,0.32785 30.81967,0c0.32784,0.32785 0.32784,-7.21313 0,-7.54098c0.32784,0.32785 47.21308,1.31146 46.88523,0.98361c0.32785,0.32785 -0.00002,-13.44264 -0.32787,-13.77049c0.32785,0.32785 2.9508,-0.00002 2.9508,-0.00002c0,0 0,-9.18033 -0.32785,-9.50818c0.32785,0.32785 -2.95084,-0.32788 -3.27869,-0.65573c0.32785,0.32785 0.65572,-14.42625 0.32787,-14.7541c0.32785,0.32785 -42.62296,-0.00002 -42.95081,-0.32787c0.32785,0.32785 -0.98363,-32.45903 -1.31147,-32.78688c0.32784,0.32785 5.57374,-0.65575 5.2459,-0.9836c0.32784,0.32785 -0.00002,-26.88526 -0.32787,-27.21311l-45.90165,0.98359z" id="svg_14"/>
  <text fill="#ff0000" stroke="null" stroke-width="0" stroke-opacity="null" x="836.967093" y="841.061349" id="svg_15" font-size="24" font-family="Helvetica, Arial, sans-serif" text-anchor="start" xml:space="preserve">KOM</text>
  <path fill="#5f00bf" stroke="null" stroke-width="1.5" stroke-opacity="null" d="m816.311358,1045.979333c0,0 0,-99.01637 0,-99.01637c0,0 99.99998,0 99.67213,-0.32785c0.32785,0.32785 0.65572,99.01635 0.32787,98.68851" id="svg_16"/>
  <text fill="#ff0000" stroke="null" stroke-width="0" stroke-opacity="null" x="850.737581" y="1001.38918" id="svg_17" font-size="24" font-family="Helvetica, Arial, sans-serif" text-anchor="start" xml:space="preserve">PH</text>
  <path fill="#5f00bf" stroke="null" stroke-width="1.5" stroke-opacity="null" d="m623.545328,973.437183l42.88309,-1.01301c0.25975,0.15587 1.68832,5.01301 1.68832,5.01301c0,0 10.57143,-0.57143 10.31168,-0.7273c0.25975,0.15587 -0.02597,25.87015 -0.02597,25.87015c0,0 8.85714,0 8.59739,-0.15587c0.25975,0.15587 1.1169,31.013 0.85715,30.85713c0.25975,0.15587 -8.31168,0.44158 -8.57143,0.28572c0.25975,0.15586 0.54547,25.58443 0.28572,25.42856c0.25975,0.15587 -7.45454,-0.70128 -7.71429,-0.85714c0.25975,0.15586 -5.45453,3.87015 -5.71428,3.71428c0.25975,0.15587 -14.31168,0.44158 -14.57142,0.28572c0.25974,0.15586 -0.02597,5.58443 -0.28572,5.42857c0.25975,0.15586 -10.02596,-0.41557 -10.28571,-0.57143c0.25975,0.15586 -2.02596,-6.41556 -2.28571,-6.57143c0.25975,0.15587 -14.31168,-0.98699 -14.31168,-0.98699l-0.85714,-85.99997z" id="svg_18"/>
  <text fill="#ff0000" stroke="null" stroke-width="0" stroke-opacity="null" x="630.116754" y="1024.865736" id="svg_19" font-size="24" font-family="Helvetica, Arial, sans-serif" text-anchor="start" xml:space="preserve">JUB</text>
  <path fill="#5f00bf" stroke="null" stroke-width="1.5" stroke-opacity="null" d="m382.422198,1485.715303c0.40393,0.67204 3.09278,-44.32984 3.09278,-43.81438c0,0.51547 -7.21649,0.51547 -7.52574,0.41235c0.30925,0.10312 0.30925,-7.11337 0,-7.21649c0.30925,0.10312 54.94835,4.22683 54.6391,4.12371c0.30925,0.10312 2.3711,-32.37106 2.06186,-32.47418c0.30924,0.10312 -50.72161,-1.95874 -51.03086,-2.06185c0.30925,0.10311 0.82471,-6.08245 0.82471,-6.08245c0,0 -14.43297,0 -14.74222,-0.10311c0.30925,0.10311 -1.7526,44.43295 -1.23714,43.91749c0.51546,-0.51547 -49.48447,-3.09278 -49.79371,-3.1959c0.30924,0.10312 -0.72168,32.5773 -0.72168,32.5773c0,0 44.8453,0.51546 44.53605,0.41234c0.30925,0.10312 -0.20622,11.95878 -0.20622,11.95878l20.10307,1.54639z" id="svg_21"/>
  <text fill="#ff0000" stroke="null" stroke-width="0" stroke-opacity="null" x="382.937659" y="1427.98342" id="svg_22" font-size="24" font-family="Helvetica, Arial, sans-serif" text-anchor="start" xml:space="preserve">ING</text>
  <path fill="#5f00bf" stroke="null" stroke-width="1.5" stroke-opacity="null" d="m441.093168,1565.784103l0.14335,-7.95706l6.09318,0.35842l0.35843,-8.96057l-5.73477,0.35842l1.43369,-7.8853l-29.03224,1.79211l-1.07527,9.319l3.58423,-0.71685l-0.35843,13.62007l24.58783,0.07176z" id="svg_23"/>
  <text fill="#ff0000" stroke="null" stroke-width="0" stroke-opacity="null" x="337.150545" y="1573.310979" id="svg_24" font-size="24" font-family="Helvetica, Arial, sans-serif" text-anchor="start" xml:space="preserve">ALOF</text>
  <path fill="#5f00bf" stroke="null" stroke-width="1.5" stroke-opacity="null" d="m394.856618,1615.604873l1.21862,-17.9929l7.16846,1.43369l0,-4.65949l4.30107,0.71684l0.71685,-8.24372l4.30107,1.07526l0.71685,-7.16845c0.21507,0.07176 28.8889,1.14702 28.8889,1.14702c0,0 0,3.94266 -0.21508,3.8709c0.21508,0.07176 7.74196,0.43018 7.52688,0.35842c0.21508,0.07176 -1.57704,30.17928 -1.79211,30.10752c0.21507,0.07176 -22.72399,-1.36193 -22.93906,-1.43369c0.21507,0.07176 0.5735,-6.73828 0.35842,-6.81004c0.21508,0.07176 -4.80284,-0.64508 -5.01792,-0.71684c0.21508,0.07176 0.21508,4.73125 0,4.65949c0.21508,0.07176 -8.02865,0.07176 -8.24373,0c0.21508,0.07176 0.21508,-4.22931 0,-4.30107c0.21508,0.07176 -3.36915,0.07176 -3.58422,0c0.21507,0.07176 0.21507,10.1076 0.21507,9.74918l-13.62007,-1.79212z" id="svg_25"/>
  <text fill="#ff0000" stroke="null" stroke-width="0" stroke-opacity="null" x="313.136215" y="1615.604874" id="svg_26" font-size="24" font-family="Helvetica, Arial, sans-serif" text-anchor="start" xml:space="preserve">ALUM</text>
  <path fill="#5f00bf" stroke="null" stroke-width="1.5" stroke-opacity="null" d="m92.633198,1304.167633l-1.18341,-24.37873l-5.91716,0.59171l0,-59.1716l7.10059,0l-0.59171,-23.66863l-49.70414,0c0.59169,0.11837 -0.00003,22.01186 -0.00003,22.01186c0,0 26.03551,0 25.44381,-0.11837c0.5917,0.11837 0.5917,13.13612 0,13.01775c0.5917,0.11837 -56.21304,0.71009 -56.80473,0.59171c0.59169,0.11838 1.18341,30.88761 0.59172,30.76923c0.59169,0.11838 55.62128,0.7101 55.02958,0.59172c0.5917,0.11838 0.5917,11.36098 0.5917,11.36098c0,0 -21.30178,1.18343 -21.89347,1.06506c0.59169,0.11837 0.59169,27.33731 0,27.21893l47.33725,0.11838z" id="svg_27"/>
  <text fill="#ff0000" stroke="null" stroke-width="0" stroke-opacity="null" x="22.810714" y="1256.830351" id="svg_28" font-size="24" font-family="Helvetica, Arial, sans-serif" text-anchor="start" xml:space="preserve">PCS</text>
  <path fill="#5f00bf" stroke="null" stroke-width="1.5" stroke-opacity="null" d="m1046.358938,1048.425383l-0.47336,-80.47316l44.37861,1.18343l-0.59172,-8.87572l15.38459,0.59171l7.69229,-20.1183c0.47336,0.59167 9.94079,4.14196 9.94079,4.14196c0,0 -2.95857,5.91714 -2.95857,5.91714c0,0 28.40231,-0.59171 28.40231,-0.59171c0,0 0.59171,5.91715 0.11836,5.32548c0.47335,0.59167 -6.62723,-0.59176 -7.10058,-1.18343c0.47335,0.59167 0.47335,14.20111 0.47335,14.20111c0,0 5.32544,0 4.85208,-0.59167c0.47336,0.59167 0.47336,10.0591 0,9.46744c0.47336,0.59166 -3.66865,-0.00005 -3.66865,-0.00005c0,0 0.59172,19.52659 0.11836,18.93492c0.47336,0.59167 11.12423,-0.00005 10.65087,-0.59171c0.47336,0.59166 0.47336,22.48511 0,21.89344c0.47336,0.59167 -10.76923,0.59167 -11.24258,0c0.47335,0.59167 1.65678,30.76912 1.65678,30.76912l-97.63293,0z" id="svg_30"/>
  <text fill="#ff0000" stroke="null" stroke-width="0" stroke-opacity="null" x="1061.743518" y="1012.922497" id="svg_31" font-size="24" font-family="Helvetica, Arial, sans-serif" text-anchor="start" xml:space="preserve">TODD</text>
  <path fill="#5f00bf" stroke="null" stroke-width="1.5" stroke-opacity="null" d="m1174.169328,1031.265653l-2.2485,-55.62114l15.9763,-0.59171l0.59171,-19.52659l33.13603,0.59171l-0.59171,-9.46743l5.91715,0l0.59171,5.32543c0.47335,0.59167 21.18337,-0.00005 21.18337,-0.00005c0,0 0.59171,-4.73372 0.11836,-5.32538c0.47335,0.59166 5.79879,-0.00005 5.32544,-0.59172c0.47335,0.59167 1.65678,6.50882 1.18343,5.91715c0.47335,0.59167 8.16564,-0.00005 7.69229,-0.59171c0.47335,0.59166 4.61535,6.50881 4.142,5.91714c0.47335,0.59167 22.3668,-0.59176 21.89345,-1.18343c0.47335,0.59167 4.02364,62.13001 4.02364,62.13001c0,0 -20.1183,0 -20.59165,-0.59167c0.47335,0.59167 -0.11837,7.10053 -0.59172,6.50887c0.47335,0.59166 -16.09466,0.59166 -16.09466,0.59166c0,0 -2.36686,13.01773 -2.84021,12.42606c0.47335,0.59167 -72.89928,2.95852 -73.37264,2.36686l-5.44379,-8.28406z" id="svg_32"/>
  <text fill="#ff0000" stroke="null" stroke-width="0" stroke-opacity="null" x="1200.796491" y="1003.455061" id="svg_33" font-size="24" font-family="Helvetica, Arial, sans-serif" text-anchor="start" xml:space="preserve">KUC</text>
  <path fill="#5f00bf" stroke="null" stroke-width="1.5" stroke-opacity="null" d="m1039.850068,818.840053c0,0 43.7869,-1.18343 43.31354,-1.7751c0.47336,0.59167 -0.11836,15.97625 -0.11836,15.97625c0,0 -11.83429,1.18343 -12.30765,0.59176c0.47336,0.59167 1.06507,75.14773 0.59171,74.55607c0.47336,0.59166 13.49109,1.77509 13.01773,1.18343c0.47336,0.59166 0.47336,16.56796 0,15.97629c0.47336,0.59167 -42.72182,1.7751 -43.19518,1.18343c0.47336,0.59167 -0.71007,-16.56806 -0.71007,-16.56806c0,0 11.83429,0 11.83429,0c0,0 0,-27.81059 -0.47336,-28.40226c0.47336,0.59167 -5.44378,-0.00005 -5.91714,-0.59172c0.47336,0.59167 1.06507,-21.89349 0.59171,-22.48516c0.47336,0.59167 5.20708,0.59167 4.73372,0c0.47336,0.59167 -1.30179,-24.26035 -1.77514,-24.85202c0.47335,0.59167 -9.5858,-0.00004 -10.05916,-0.59171l0.47336,-14.2012z" id="svg_34"/>
  <text fill="#ff0000" stroke="null" stroke-width="0" stroke-opacity="null" x="1011.447758" y="879.194958" id="svg_35" font-size="24" font-family="Helvetica, Arial, sans-serif" text-anchor="start" xml:space="preserve">JH</text>
  <path fill="#5f00bf" stroke="null" stroke-width="1.5" stroke-opacity="null" d="m1226.240228,860.851803c0,0 1.18343,-27.21888 1.18343,-27.21888c0,0 54.43776,2.36686 53.96441,1.77518c0.47335,0.59168 0.47335,27.21884 0,26.62717l-55.14784,-1.18347z" id="svg_36"/>
  <text fill="#ff0000" stroke="null" stroke-width="0" stroke-opacity="null" x="1239.257951" y="856.118082" id="svg_37" font-size="24" font-family="Helvetica, Arial, sans-serif" text-anchor="start" xml:space="preserve">FH</text>
  <path fill="#5f00bf" stroke-width="1.5" d="m1031.566068,664.994213l20.82837,-1.77511l1.18343,4.73372c0.47336,0.59167 5.20708,1.18339 5.79879,1.18339c0.59172,0 10.05915,37.86974 9.58579,37.27807c0.47336,0.59167 5.20708,-0.00004 4.73372,-0.59172c0.47336,0.59168 1.06507,11.24255 0.59172,10.65087c0.47335,0.59168 -4.85208,0.59168 -5.32544,0c0.47336,0.59168 0.47336,37.27799 0,36.68632c0.47336,0.59167 -9.58579,-0.00004 -10.05915,-0.59172c0.47336,0.59168 0.47336,11.83426 0,11.24258c0.47336,0.59168 -3.66864,1.18339 -4.142,0.59172c0.47336,0.59167 -0.71007,5.32539 -1.18343,4.73372c0.47336,0.59167 -20.82837,-0.00004 -21.30173,-0.59172c0.47336,0.59168 1.65679,-15.97634 1.18343,-16.56801c0.47336,0.59167 9.34908,1.18339 8.87572,0.59171c0.47336,0.59168 1.06507,-27.21892 1.06507,-27.21892c0,0 -7.69229,0 -8.16565,-0.59167c0.47336,0.59167 0.47336,-16.56806 0,-17.15973c0.47336,0.59167 7.57394,0.59167 7.10058,0c0.47336,0.59167 0.47336,-27.21892 0,-27.8106c0.47336,0.59168 -11.36094,1.18339 -11.8343,0.59172l1.06508,-15.38462z" id="svg_39"/>
  <text fill="#ff0000" stroke="null" stroke-width="0" stroke-opacity="null" x="1032.749494" y="730.67455" id="svg_40" font-size="24" font-family="Helvetica, Arial, sans-serif" text-anchor="start" xml:space="preserve">SFA</text>
  <path fill="#5f00bf" stroke-width="1.5" d="m1152.275878,742.508843l-0.47335,-19.52655c0.47335,0.59168 4.02364,-0.59175 4.61535,-0.59175c0.59172,0 0,-4.73372 -0.47335,-5.3254c0.47335,0.59168 -4.26036,0.59168 -4.73372,0c0.47336,0.59168 0.47336,-13.01776 0,-13.60944c0.47336,0.59168 5.79879,-1.18346 5.32543,-1.77514c0.47336,0.59168 -4.85207,-2.95861 -5.32543,-3.55029c0.47336,0.59168 0.47336,-8.87576 0,-9.46744c0.47336,0.59168 -5.44379,1.1834 -5.91715,0.59172c0.47336,0.59168 -0.71007,-4.73376 -1.18343,-5.32543c0.47336,0.59167 -33.25438,1.7751 -33.72774,1.18343c0.47336,0.59167 -1.30179,11.83425 -0.71007,11.83425c0.59171,0 -34.91118,-0.59171 -35.38453,-1.18339c0.47335,0.59168 0.47335,21.89341 0,21.30173c0.47335,0.59168 15.85794,-1.18346 15.38458,-1.77514c0.47336,0.59168 -1.30179,42.01171 -1.77514,41.42004c0.47335,0.59167 23.55023,0.59167 23.07687,0c0.47336,0.59167 1.06508,-8.28405 0.59172,-8.87573c0.47336,0.59168 13.49108,1.77511 13.01772,1.18343c0.47336,0.59168 1.06508,-3.55032 0.59172,-4.142c0.47336,0.59168 9.94079,1.18339 9.46744,0.59172" id="svg_43"/>
  <text fill="#ff0000" stroke-width="0" x="1092.512686" y="727.715974" id="svg_44" font-size="24" font-family="Helvetica, Arial, sans-serif" text-anchor="start" xml:space="preserve">WMB</text>
  <path fill="#5f00bf" stroke-width="1.5" d="m1191.920768,672.686503l-1.77514,104.1418c0,0 25.44373,0 24.97038,-0.59168c0.47335,0.59168 0.47335,-10.05919 0.47335,-10.05919c0,0 7.10058,0 6.62723,-0.59167c0.47335,0.59167 0.47335,-31.36093 0,-31.9526c0.47335,0.59167 12.89936,0.59167 12.42601,0c0.47335,0.59167 38.3431,10.65083 37.86975,10.05915c0.47335,0.59168 3.43192,-9.46748 2.95857,-10.05915c0.47335,0.59167 6.3905,0.59167 5.91715,0c0.47335,0.59167 4.02364,-4.14204 3.55029,-4.73372c0.47335,0.59168 0.47335,-20.71006 0,-21.30173c0.47335,0.59167 -3.66866,-4.14204 -4.14201,-4.73372c0.47335,0.59168 -3.66865,0.59168 -4.142,0c0.47335,0.59168 -3.07694,-8.87576 -3.55029,-9.46744c0.47335,0.59168 -35.62125,7.69226 -36.0946,7.10058c0.47335,0.59168 -13.13609,1.77511 -13.60944,1.18343c0.47335,0.59168 1.65678,-28.99406 1.65678,-28.99406l-33.13603,0z" id="svg_45"/>
  <text fill="#ff0000" stroke="null" stroke-width="0" stroke-opacity="null" fill-opacity="null" x="1198.429631" y="725.94083" id="svg_46" font-size="24" font-family="Helvetica, Arial, sans-serif" text-anchor="start" xml:space="preserve">BDA</text>
  <path fill="#5f00bf" stroke="null" stroke-width="1.5" stroke-opacity="null" fill-opacity="null" d="m1349.908618,651.976483l35.62125,1.18347c0.47335,0.59167 -3.07694,76.33117 -3.07694,76.33117c0,0 15.38458,0 14.91124,-0.59168c0.47334,0.59168 0.47334,-6.5089 0,-7.10058c0.47334,0.59168 27.10051,-0.00004 26.62716,-0.59171c0.47335,0.59167 0.47335,10.05911 0,9.46744c0.47335,0.59167 4.61535,0.59167 4.14201,0c0.47334,0.59167 1.65677,18.93483 1.18343,18.34315c0.47334,0.59168 -10.17752,8.28397 -10.65087,7.6923c0.47335,0.59167 -0.11837,7.10053 -0.59171,6.50886c0.47334,0.59167 -33.84612,-0.59176 -34.31946,-1.18343c0.47334,0.59167 -0.11837,-4.73376 -0.59172,-5.32543c0.47335,0.59167 -8.99409,0.59167 -9.46743,0c0.47334,0.59167 -0.11837,12.42597 -0.59172,11.83429c0.47335,0.59168 -27.33725,1.18339 -27.81059,0.59172c0.47334,0.59167 1.65677,-47.92894 1.18343,-48.52062c0.47334,0.59168 9.34906,1.18339 8.87572,0.59172c0.47334,0.59167 0.47334,-5.32547 0.47334,-5.32547c0,0 -8.87572,0.59171 -9.34906,0.00004l3.43192,-63.90524z" id="svg_47"/>
  <text fill="#ff0000" stroke="null" stroke-width="0" stroke-opacity="null" fill-opacity="null" x="1351.683758" y="751.384566" id="svg_48" font-size="24" font-family="Helvetica, Arial, sans-serif" text-anchor="start" xml:space="preserve">CKNB</text>
  <path fill="#5f00bf" stroke="null" stroke-width="1.5" stroke-opacity="null" fill-opacity="null" d="m1530.736638,270.320453c0,0 20.1183,0 19.88166,-0.59169c0.23664,0.59169 2.01178,-4.14203 2.01178,-4.14203c0,0 7.10058,0.59172 7.10058,0.59172c0,0 2.36686,34.31945 2.13022,33.72776c0.23664,0.59169 -6.86394,1.18341 -7.10057,0.59171c0.23663,0.5917 -0.9468,7.10056 -0.9468,7.10056c0,0 -15.38458,0.59171 -15.62122,0.00002c0.23664,0.59169 -0.94679,-6.50888 -1.18343,-7.10058c0.23664,0.5917 -6.86394,0.5917 -6.27222,0.5917l0,-30.76917z" id="svg_49"/>
  <text fill="#ff0000" stroke="null" stroke-width="0" stroke-opacity="null" fill-opacity="null" x="1554.405227" y="290.438754" id="svg_50" font-size="24" font-family="Helvetica, Arial, sans-serif" text-anchor="start" xml:space="preserve">TCM</text>
  <path fill="#5f00bf" stroke="null" stroke-width="1.5" stroke-opacity="null" fill-opacity="null" d="m1621.268998,288.071893c0,-0.59171 23.66859,0 23.43196,-0.59169c0.23663,0.59169 2.01177,-14.20118 1.77514,-14.79287c0.23663,0.59169 34.55609,1.18341 34.31946,0.59171c0.23663,0.5917 0.23663,10.7692 0.23663,10.7692c0,0 87.57379,3.55029 87.33716,3.43196c0.23663,0.11833 0.82834,-11.12425 0.59171,-11.24258c0.23663,0.11833 25.68037,0.71004 25.44374,0.59171c0.23663,0.11833 0.23663,16.09463 0,15.9763c0.23663,0.11833 24.49693,0.71005 24.26031,0.59172c0.23662,0.11833 -0.9468,65.20695 -1.18343,65.08863c0.23663,0.11832 -6.27224,-1.06511 -6.50887,-1.18343c0.23663,0.11832 2.01178,12.54433 2.01178,13.13605c0,0.59171 -10.05915,1.18343 -10.29578,1.0651c0.23663,0.11833 -0.9468,-12.8994 -1.18343,-13.01772c0.23663,0.11832 -8.04738,-0.47339 -8.28401,-0.59172c0.23663,0.11833 -0.9468,19.0532 -1.18343,18.93487c0.23663,0.11833 -24.61539,1.89347 -24.85202,1.77515c0.23663,0.11832 -0.9468,-9.34911 -1.18343,-9.46744c0.23663,0.11833 -7.45566,-1.0651 -7.69229,-1.18343c0.23663,0.11833 -0.35509,-7.57396 -0.59172,-7.69229c0.23663,0.11833 -7.45566,0.11833 -8.04737,0.11833c-0.59172,0 -4.73372,55.02947 -4.97035,54.91115c0.23663,0.11832 -128.16548,-1.06511 -128.40212,-1.18343c0.23664,0.11832 2.6035,-62.01173 2.36686,-62.13006c0.23664,0.11833 -6.27222,0.71004 -6.50886,0.59172c0.23664,0.11832 2.01178,-16.44969 1.77515,-16.56802c0.23663,0.11833 7.92892,0.71004 7.69229,0.59172l-0.35508,-48.52064z" id="svg_51"/>
  <text fill="#ff0000" stroke="null" stroke-width="0" stroke-opacity="null" fill-opacity="null" x="1682.807334" y="343.811434" id="svg_52" font-size="24" font-family="Helvetica, Arial, sans-serif" text-anchor="start" xml:space="preserve">TLC</text>
  <path fill="#5f00bf" stroke="null" stroke-width="1.5" stroke-opacity="null" fill-opacity="null" d="m1493.458608,257.776113l2.72193,-32.42596c0.23664,0.47336 -4.49708,-0.11836 -4.49708,-0.11836c0,0 -2.36686,8.28401 -2.6035,7.81065c0.23664,0.47336 -44.14196,-3.07693 -44.37861,-3.55029c0.23665,0.47336 -0.35507,-9.58579 -0.59171,-10.05915c0.23664,0.47336 -4.49708,1.65679 -4.49708,1.65679c0,0 -1.77514,27.81059 -2.01179,27.33723c0.23665,0.47336 5.56208,2.84022 5.32544,2.36686c0.23664,0.47336 0.82836,-7.21893 0.59171,-7.69229c0.23665,0.47336 44.02354,4.61537 44.02354,4.61537c0,0 0,8.284 -0.23664,7.81064l6.15379,2.24851z" id="svg_53"/>
  <text fill="#ff0000" stroke="null" stroke-width="0" stroke-opacity="null" fill-opacity="null" x="1498.784038" y="244.166669" id="svg_54" font-size="24" font-family="Helvetica, Arial, sans-serif" text-anchor="start" xml:space="preserve">HOB</text>
  <path fill="#5f00bf" stroke="null" stroke-width="1.5" stroke-opacity="null" fill-opacity="null" d="m1486.949738,550.674943l-0.82835,17.27808l-5.32543,4.142l7.69229,8.28401l13.01772,-9.46744l4.14201,14.20115l13.60944,1.77515l3.55029,-5.32544l-3.55029,-10.65086l1.18343,-13.60944l-19.52659,0.59171l-1.18343,-8.284l-12.78108,1.06508l-0.00001,0z" id="svg_56"/>
  <text fill="#ff0000" stroke="null" stroke-width="0" stroke-opacity="null" fill-opacity="null" x="1523.044344" y="579.668967" id="svg_57" font-size="24" font-family="Helvetica, Arial, sans-serif" text-anchor="start" xml:space="preserve">HMA</text>
  <path fill="#5f00bf" stroke="null" stroke-width="1.5" stroke-opacity="null" fill-opacity="null" d="m1486.949738,679.077053c0,0 41.42004,1.18343 41.1834,0.71006c0.23664,0.47336 5.56207,7.57394 5.32543,7.10058c0.23664,0.47336 0.23664,14.67452 0,14.20115c0.23664,0.47337 6.7455,1.06508 6.50887,0.59172c0.23663,0.47336 0.82835,8.16566 0.59171,7.69229c0.23664,0.47336 -6.86394,-0.71007 -7.10058,-1.18343c0.23664,0.47336 -0.35507,31.83425 -0.59171,31.36089c0.23664,0.47336 -8.63908,11.71594 -8.87572,11.24258c0.23664,0.47336 -31.12425,0.47336 -31.36089,0c0.23664,0.47336 2.01179,-16.68637 1.77515,-17.15973c0.23664,0.47336 -10.41423,1.65679 -10.65087,1.18343c0.23664,0.47336 3.19521,-20.82837 2.95857,-21.30174c0.23664,0.47337 4.97036,2.24851 4.73372,1.77515c0.23664,0.47336 2.01179,-22.0118 1.77515,-22.48516c0.23664,0.47336 -11.59766,1.65679 -11.59766,1.65679c0,0 -0.59171,-5.91715 -0.59171,-6.50886c0,-0.59172 5.32543,0.59171 5.08879,0.11835c0.23664,0.47336 0.82835,-8.99408 0.82835,-8.99408l0,0.00001z" id="svg_58"/>
  <text fill="#ff0000" stroke="null" stroke-width="0" stroke-opacity="null" fill-opacity="null" x="1488.724887" y="722.863943" id="svg_59" font-size="24" font-family="Helvetica, Arial, sans-serif" text-anchor="start" xml:space="preserve">SAG</text>
  <path fill="#5f00bf" stroke="null" stroke-width="1.5" stroke-opacity="null" fill-opacity="null" d="m1630.736438,720.497083c0,0 -1.18343,4.73372 -1.42007,4.26036c0.23664,0.47336 6.7455,1.65679 6.7455,1.65679c0,0 0,4.73372 -0.23664,4.26035c0.23664,0.47337 -4.49708,1.6568 -4.73372,1.18344c0.23664,0.47336 2.01178,7.57393 2.01178,7.57393c0,0 -4.142,0.59172 -4.37863,0.11836c0.23663,0.47336 0.23663,6.39051 0,5.91715c0.23663,0.47336 4.37863,3.43193 4.142,2.95857c0.23664,0.47336 -0.94679,16.44966 -1.18343,15.9763c0.23664,0.47336 17.98808,-0.11835 17.75144,-0.59172c0.23664,0.47336 -1.53851,-9.58579 -1.77514,-10.05915c0.23663,0.47336 49.34896,-0.11835 49.11233,-0.59171c0.23663,0.47336 -1.53851,-6.0355 -1.77515,-6.50887c0.23664,0.47337 17.98808,-0.11835 18.57979,-0.11835c0.59172,0 -0.59171,-9.46744 0,-8.87572c0.59172,0.59171 -4.142,-8.87572 -4.37863,-9.34908c0.23663,0.47336 -39.99997,1.06507 -40.23661,0.59171c0.23664,0.47336 -0.35508,-7.21893 -0.59171,-7.69229c0.23663,0.47336 -37.63311,-0.71007 -37.63311,-0.71007z" id="svg_60"/>
  <path fill="#5f00bf" stroke="null" stroke-width="1.5" stroke-opacity="null" fill-opacity="null" opacity="0.5" d="m1602.334128,1027.597053l13.96451,22.01181" id="svg_64"/>
  <path fill="#5f00bf" stroke="null" stroke-width="1.5" stroke-opacity="null" fill-opacity="null" d="m1584.529358,1044.726923c-13.42281,4.69799 -24.16106,0.67114 -24.16106,0.67114c0,0 0,-4.02684 0,-4.02684c0,0 -18.79194,-0.67114 -19.06034,-1.20811c0.2684,0.53697 0.2684,-14.89926 0,-15.43623c0.2684,0.53697 -13.82555,0.53697 -14.09395,0c0.2684,0.53697 0.93954,-80.67104 0.67114,-81.20801c0.2684,0.53697 8.32209,1.20811 8.05369,0.67114c0.2684,0.53697 2.95296,-50.46972 2.68456,-51.00668c0.2684,0.53696 8.32209,-0.13418 8.32209,-0.13418c0,0 6.7114,-8.05369 6.443,-8.59065c0.2684,0.53696 17.71806,1.20811 17.71806,1.20811c0,0 0,-4.02685 -0.2684,-4.56381c0.2684,0.53696 13.69121,-3.48988 13.42281,-4.02685c0.2684,0.53697 14.36235,4.56381 14.09395,4.02685c0.2684,0.53696 2.28183,5.23495 2.01342,4.69798c0.26841,0.53697 15.70464,0.53697 15.43623,0c0.26841,0.53697 6.30867,8.59065 6.04027,8.05369c0.2684,0.53696 8.32209,0.53696 8.05369,0c0.2684,0.53696 1.61068,52.21479 1.34228,51.67782c0.2684,0.53697 9.66437,-0.13417 13.69122,0.53697l3.08729,30.3355c0.26841,0.53696 -5.77186,-0.13418 -6.04026,-0.67114c0.2684,0.53696 0.93954,14.63092 0.67114,14.09395c0.2684,0.53697 5.63753,1.20811 5.36912,0.67114c0.26841,0.53697 0.26841,44.83225 0,44.29528c0.26841,0.53697 -18.52353,1.20811 -18.79193,0.67114c0.2684,0.53697 -22.55038,1.20811 -22.81878,0.67114c0.2684,0.53697 -0.40274,5.90609 -0.67114,5.36912c0.2684,0.53697 -7.78529,-1.47645 -21.2081,3.22153z" id="svg_68"/>
  <text fill="#ff0000" stroke="null" stroke-width="0" stroke-opacity="null" fill-opacity="null" x="1562.381721" y="978.284009" id="svg_69" font-size="24" font-family="Helvetica, Arial, sans-serif" text-anchor="start" xml:space="preserve">BAS</text>
  <path fill="#5f00bf" stroke="null" stroke-width="1.5" stroke-opacity="null" fill-opacity="null" d="m1706.274278,966.874623l-1.20802,59.86568l12.08053,0.67114l-0.67114,16.77852l8.72483,-0.67115c0.53688,0.53697 0.53688,4.56382 0.53688,4.56382c0,0 88.59055,4.02684 88.05367,3.48987c0.53688,0.53697 -0.13426,-9.53014 -0.67114,-10.06711c0.53688,0.53697 6.57715,1.87925 6.57715,1.87925c0,0 4.5302,0.33557 8.89261,-2.34899c4.36242,-2.68456 10.03197,-6.91433 9.36083,-18.99486l7.2499,0.53849l0.32072,-14.02342l-1.44919,-8.19747l-1.42183,-37.37644c0.53688,0.53696 -6.17453,0.53696 -6.17453,0.53696c0,0 -0.67114,-12.75167 -1.20802,-13.28864c0.53688,0.53697 -4.83224,0.53697 -5.36912,0c0.53688,0.53697 -3.48997,5.9061 -4.02685,5.36913c0.53688,0.53697 -14.22821,0.53697 -14.76509,0c0.53688,0.53697 -12.88593,3.22153 -13.42281,2.68456c0.53688,0.53697 -0.13426,27.38259 -0.67114,26.84562c7.73216,0.3754 13.20036,-3.56077 15.2606,1.84875l-0.17244,18.98478c-5.30974,2.35988 -9.15246,5.04444 -10.65708,11.24705l-67.51829,-2.97802l-3.35571,-49.90791l-24.29532,2.55039z" id="svg_73"/>
  <text fill="#ff0000" stroke="null" stroke-width="0" stroke-opacity="null" fill-opacity="null" x="1739.660845" y="1040.630364" id="svg_74" font-size="24" font-family="Helvetica, Arial, sans-serif" text-anchor="start" xml:space="preserve">COE</text>
  <path fill="#5f00bf" stroke="null" stroke-width="1.5" stroke-opacity="null" fill-opacity="null" d="m1639.511728,1116.955553l66.78782,0.21888c0.3649,0.14608 14.96331,-2.7736 14.96331,-19.19682l30.65675,1.67872c0.36489,0.14608 1.09481,8.54017 0.72992,8.39409c0.36489,0.14608 20.80268,-0.58384 20.43778,-0.72992c0.3649,0.14608 -1.82486,21.67875 -2.18976,21.53266c0.3649,0.14609 6.93418,-0.58384 6.56929,-0.72992c0.36489,0.14608 1.45977,7.81025 1.09488,7.66417c0.36489,0.14608 -4.74455,0.51104 -5.10945,0.36496c0.3649,0.14608 0.3649,10.00002 0,9.85393c0.3649,0.14609 4.74442,2.70081 4.37953,2.55472c0.36489,0.14609 -0.00007,14.74451 -0.36496,14.59842c0.36489,0.14609 -5.47447,-0.21887 -5.83937,-0.36496c0.3649,0.14609 -0.36503,27.88308 -0.72992,27.73699c0.36489,0.14609 10.94875,1.24097 10.58385,1.09489c0.3649,0.14608 0.72986,26.78819 0.36496,26.64211c0.3649,0.14608 -118.61221,-1.31376 -118.9771,-1.45984c0.36489,0.14608 2.1897,-31.24052 1.8248,-31.3866c0.3649,0.14608 -13.5036,-1.31376 -13.86849,-1.45984c0.36489,0.14608 0.36489,-14.08737 0,-14.23346c0.36489,0.14609 -11.67881,0.14609 -12.0437,0c0.36489,0.14609 0.72985,-14.08737 0.36496,-14.23346c0.3649,0.14609 -5.47447,0.87601 -5.83936,0.72992c0.36489,0.14609 -4.3796,-8.61296 -4.74449,-8.75905c0.36489,0.14609 8.39402,-4.23344 8.02913,-4.37952c0.36489,0.14608 0.72985,-10.07281 0.36496,-10.21889c0.36489,0.14608 -3.28471,-2.04368 -3.28471,-2.40864c0,-0.36496 -0.72992,-5.10945 -1.09481,-5.25553c0.36489,0.14608 6.93418,0.14608 6.56928,0l0.3649,-8.24801z" id="svg_75"/>
  <text fill="#ff0000" stroke="null" stroke-width="0" stroke-opacity="null" fill-opacity="null" x="1670.1684" y="1158.561045" id="svg_76" font-size="24" font-family="Helvetica, Arial, sans-serif" text-anchor="start" xml:space="preserve">BRAGG</text>
  <path fill="#5f00bf" stroke="null" stroke-width="1.5" stroke-opacity="null" fill-opacity="null" d="m1513.965328,1235.567703l11.67881,0.58383l0.36496,-12.77362c0.36489,0.14609 31.02156,-10.0728 31.02156,-10.0728c0,0 26.27716,0.36496 25.91227,0.21887c0.36489,0.14609 30.29164,10.72994 29.92675,10.58386c0.36489,0.14608 0.72985,12.9197 1.09481,12.9197c0.36496,0 10.2189,-0.36496 9.854,-0.51105c0.3649,0.14609 1.09482,64.37913 0.72993,64.23304c0.36489,0.14609 -12.40873,0.14609 -12.77362,0c0.36489,0.14609 -3.28471,45.03622 -3.6496,44.89013c0.36489,0.14609 4.74441,1.24097 5.47433,0.87601c0.72992,-0.36496 1.09489,14.96338 1.09489,14.96338c0,0 -25.18228,-2.91968 -25.18228,-2.91968c0,0 -2.55472,3.6496 -2.18976,3.6496c0.36496,0 -36.49604,0.36496 -36.86093,0.21887c0.36489,0.14609 -2.5548,-5.32832 -2.91968,-5.47441c0.36488,0.14609 -23.72251,3.43074 -24.08739,3.28465c0.36488,0.14609 -0.73,-11.16769 -1.09488,-11.31378c0.36488,0.14609 6.93417,0.51105 6.56928,0.36496c0.36489,0.14609 -0.00007,-48.02868 -0.36496,-48.17477c0.36489,0.14609 -15.69337,-0.21887 -16.05826,-0.36496l1.45977,-65.18183z" id="svg_77"/>
  <text fill="#ff0000" stroke="null" stroke-width="0" stroke-opacity="null" fill-opacity="null" x="1543.892087" y="1268.779099" id="svg_78" font-size="24" font-family="Helvetica, Arial, sans-serif" text-anchor="start" xml:space="preserve">LIB</text>
  <path fill="#5f00bf" stroke="null" stroke-width="1.5" stroke-opacity="null" fill-opacity="null" d="m1888.122848,1139.583103l0.29196,-16.56931l5.4744,0.72993l-0.72992,-6.56929l71.89721,3.6496l-1.09488,-19.70786l21.1677,0l1.09488,6.56929l-3.28464,0.36496l-0.36496,10.94881l2.91968,0.36496l0.36496,5.10945l5.10945,-0.36496l0,22.62754c0.07301,0.14609 -18.90494,-0.21887 -18.90494,-0.21887c0,0 -0.36496,-2.91969 -0.43796,-3.06577c0.073,0.14608 -3.94156,0.14608 -4.01457,0c0.07301,0.14608 -0.65691,2.33585 -0.72992,2.18976c0.07301,0.14609 -18.53998,-0.58383 -18.61298,-0.72992c0.073,0.14609 0.43796,-7.15312 0.36496,-7.29921c0.073,0.14609 -13.43053,-1.31376 -13.50354,-1.45984c0.07301,0.14608 0.07301,3.43073 0,3.28464l-47.00689,0.14609z" id="svg_79"/>
  <text fill="#ff0000" stroke="null" stroke-width="0" stroke-opacity="null" fill-opacity="null" x="1892.137413" y="1100.532335" id="svg_80" font-size="24" font-family="Helvetica, Arial, sans-serif" text-anchor="start" xml:space="preserve">HONR</text>
  <path fill="#5f00bf" stroke-width="1.5" d="m1351.047028,1222.940033l53.43025,1.89772l0.36496,-6.56928l75.91177,2.91968l-2.18977,41.60549l-95.61963,-5.10945l0,9.48898l6.56929,0l-4.01457,99.26923c0.21894,0.29204 12.62759,1.75189 12.26263,1.75189c-0.36496,0 0.36496,-7.29921 0.14603,-7.59125c0.21893,0.29204 6.0583,1.02196 5.83936,0.72992c0.21894,0.29204 -1.97082,-22.70047 -2.18976,-22.99251c0.21894,0.29204 16.2772,0.29204 16.05826,0c0.21894,0.29204 -0.87594,-12.48158 -1.09488,-12.77362c0.21894,0.29204 7.51814,1.02197 7.51814,1.02197c0,0 0.36496,4.01456 0.14603,3.72252c0.21893,0.29204 18.102,0.29204 17.88306,0c0.21894,0.29204 0.21894,22.55463 0,22.26259c0.21894,0.29204 -18.02909,-0.43788 -18.24802,-0.72992c0.21893,0.29204 1.67878,10.87589 1.45984,10.58385c0.21894,0.29204 67.37166,2.84676 67.15272,2.55472c0.21894,0.29204 -1.60586,38.97785 -1.8248,38.68581c0.21894,0.29204 -76.0578,-1.89772 -76.27673,-2.18977c0.21893,0.29205 -0.51099,11.24086 -0.72992,10.94882c0.21893,0.29204 -14.74445,-0.80284 -14.96338,-1.09488c0.21893,0.29204 1.31381,-11.75166 1.09488,-12.0437c0.21893,0.29204 -3.43067,0.29204 -3.6496,0c0.21893,0.29204 1.31381,-15.76622 1.09488,-16.05826c0.21893,0.29204 -12.55468,-0.43788 -12.77362,-0.72992c0.21894,0.29204 -0.14602,5.03653 -0.36496,4.74449c0.21894,0.29204 -49.41568,-0.80284 -49.63462,-1.09488c0.21894,0.29204 4.96342,-120.87483 4.96342,-120.87483c0,0 14.23346,1.09488 14.01452,0.80284c0.21894,0.29204 0.5839,-10.29181 0.36497,-10.58385c0.21893,0.29204 -4.89052,1.02196 -5.10945,0.72992l2.4087,-33.28432z" id="svg_81"/>
  <text fill="#ff0000" stroke="null" stroke-width="0" stroke-opacity="null" fill-opacity="null" x="1340.098211" y="1374.033649" id="svg_82" font-size="24" font-family="Helvetica, Arial, sans-serif" text-anchor="start" xml:space="preserve">SCI</text>
  <path fill="#5f00bf" stroke-width="1.5" d="m1334.988768,997.029513l-0.5839,46.05795l6.56929,-0.72992l0,7.66417l20.80274,1.09488l6.56929,-7.66417l16.78818,0.36496l-3.6496,7.29921l-0.36496,5.10945l5.10944,0l4.01457,-5.47441l7.29921,0.36496l1.8248,-6.56929l72.62713,2.55473l0.36496,10.58385c-2.0803,0.87593 -9.87221,2.59126 -9.98171,10.01822c-0.10949,7.42695 1.98903,12.5364 11.29553,13.63128c4.65324,0.54744 5.9306,0.72992 10.76177,-4.73537c4.83117,-5.46529 2.66885,-5.70263 2.88778,-15.26453l-0.72992,-14.96338c0.21894,0.29203 14.4524,-0.07293 14.23346,-0.36496c0.21894,0.29203 0.21894,-7.37214 0,-7.66416l-8.02913,0.36496l-1.09488,-24.08739c0.21894,0.29203 -3.43067,-3.35758 -3.64961,-3.64961c0.21894,0.29203 1.31382,-11.3867 1.09489,-11.67873c0.21893,0.29203 -12.55468,-0.07293 -12.77362,-0.36496c0.21894,0.29203 -4.89051,-4.0875 -5.10945,-4.37953c0.21894,0.29203 -23.50349,-0.07293 -23.72242,-0.36496c0.21893,0.29203 0.58389,4.67156 0.36496,4.37953c0.21893,0.29203 -48.68577,-0.43789 -48.9047,-0.72992c0.21893,0.29203 0.21893,-5.18238 0,-5.47441c0.21893,0.29203 6.42326,-0.43789 6.42326,-0.43789c0,0 -0.36496,-7.66417 -0.58389,-7.9562c0.21893,0.29203 -22.40862,-1.89773 -22.40862,-1.53277c0,0.36496 0,13.86849 -0.21893,13.57647c0.21893,0.29202 -11.82476,2.11683 -12.0437,1.8248c0.21894,0.29203 -5.98539,-7.37214 -6.20432,-7.66417c0.21893,0.29203 -20.21885,0.29203 -20.43779,0c0.21894,0.29203 -0.51098,6.49635 -0.72992,6.20433l-7.81019,0.65698z" id="svg_83"/>
  <text fill="#ff0000" stroke="null" stroke-width="0" stroke-opacity="null" fill-opacity="null" x="1389.00291" y="1029.875957" id="svg_84" font-size="24" font-family="Helvetica, Arial, sans-serif" text-anchor="start" xml:space="preserve">LRC</text>
  <path fill="#5f00bf" stroke="null" stroke-width="1.5" stroke-opacity="null" fill-opacity="null" d="m1053.823188,1106.152693l-0.07289,11.75166l4.01457,0l0.36496,67.51768l-3.64961,-0.36496l0.72992,12.77361l37.22597,0.72992l0,-13.86849l-5.10945,-0.36496l-0.72992,-22.99251l9.48897,-0.72992l0,-27.00707l-10.58385,0.72992l-0.72992,-16.78818l6.20432,0.36496l-0.36496,-12.77362l-36.78811,1.02196z" id="svg_86"/>
  <text fill="#ff0000" stroke="null" stroke-width="0" stroke-opacity="null" fill-opacity="null" x="1045.794057" y="1157.977073" id="svg_87" font-size="24" font-family="Helvetica, Arial, sans-serif" text-anchor="start" xml:space="preserve">WPS</text>
  <path fill="#5f00bf" stroke="null" stroke-width="1.5" stroke-opacity="null" fill-opacity="null" d="m1113.676698,1117.831423l1.38695,30.36465l13.50354,0.72992l2.18976,47.44485l41.60549,-1.09488l-0.72992,-8.39409l4.74449,-1.8248l0,-25.54723l4.01456,-1.09488l-0.36496,-11.67874l17.88306,-6.20432l-1.09488,-16.05826l-17.5181,-5.47441l0,-13.13857l-4.37953,0c0.07289,0.29203 0.80281,-27.08001 0.80281,-27.08001c0,0 -4.01456,0 -4.08745,-0.29203c0.07289,0.29203 0.07289,-8.83198 0,-9.12401c0.07289,0.29203 -42.99244,-0.07293 -43.06533,-0.36496c0.07289,0.29203 1.16777,51.02153 1.09488,50.7295l-15.98537,-1.89773z" id="svg_88"/>
  <text fill="#ff0000" stroke="null" stroke-width="0" stroke-opacity="null" fill-opacity="null" x="1128.275116" y="1141.918813" id="svg_89" font-size="24" font-family="Helvetica, Arial, sans-serif" text-anchor="start" xml:space="preserve">DSB</text>
  <path fill="#5f00bf" stroke="null" stroke-width="1.5" stroke-opacity="null" fill-opacity="null" d="m1108.567248,1296.662043l-0.43784,-19.9999l25.91219,0l2.18976,-2.55473l15.32834,-0.36496l1.8248,4.01457l24.81731,-0.72992l1.09488,20.07282l-70.72944,-0.43788z" id="svg_91"/>
  <text fill="#ff0000" stroke="null" stroke-width="0" stroke-opacity="null" fill-opacity="null" x="1109.662133" y="1317.464787" id="svg_92" font-size="24" font-family="Helvetica, Arial, sans-serif" text-anchor="start" xml:space="preserve">BH</text>
  <path fill="#5f00bf" stroke="null" stroke-width="1.5" stroke-opacity="null" fill-opacity="null" d="m860.102208,1988.992093l10.21889,-41.97045c-0.36496,0 20.07283,6.56929 19.92693,6.27714c0.1459,0.29215 -8.97811,41.16772 -9.12401,40.87556l-21.02181,-5.18225z" id="svg_94"/>
  <path fill="#5f00bf" stroke="null" stroke-width="1.5" stroke-opacity="null" fill-opacity="null" d="m906.817148,1974.393673l4.96354,-21.45985l17.5181,4.37952l-3.6496,20.80275l-18.83204,-3.72242z" id="svg_95"/>
  <text fill="#ff0000" stroke="null" stroke-width="0" stroke-opacity="null" fill-opacity="null" x="816.306955" y="1971.473992" id="svg_96" font-size="24" font-family="Helvetica, Arial, sans-serif" text-anchor="start" xml:space="preserve">UP</text>
  <text fill="#ff0000" stroke="null" stroke-width="0" stroke-opacity="null" fill-opacity="null" x="948.422635" y="1976.218477" id="svg_97" font-size="24" font-family="Helvetica, Arial, sans-serif" text-anchor="start" xml:space="preserve">HARR</text>
  <path fill="#5f00bf" stroke="null" stroke-width="1.5" stroke-opacity="null" fill-opacity="null" d="m1717.842508,550.760493c0,-0.36496 2.55474,-46.35025 2.33578,-46.7152c0.21896,0.36495 26.86123,1.09488 26.64227,0.72993c0.21896,0.36495 -0.87593,45.62031 -1.09489,45.25536c0.21896,0.36495 -27.88316,1.09487 -27.88316,0.72991z" id="svg_98"/>
  <path fill="#5f00bf" stroke="null" stroke-width="1.5" stroke-opacity="null" fill-opacity="null" d="m1766.747498,548.935683c0,-0.36496 31.38678,0 31.16783,-0.36495c0.21895,0.36495 -0.14601,62.04363 -0.36497,61.67868c0.21896,0.36495 -30.80286,-0.00002 -31.02182,-0.36496c0.21896,0.36494 0.21896,-60.58381 0.21896,-60.94877z" id="svg_99"/>
  <path fill="#5f00bf" stroke="null" stroke-width="1.5" stroke-opacity="null" fill-opacity="null" d="m1814.557598,507.329943l0.146,6.56934l-13.50361,0.36496l0,6.93429l12.40873,-1.09488c0.21896,0.36495 0.58392,8.02916 0.58392,8.02916c0,0 46.35025,0.36496 46.13129,0.00001c0.21896,0.36495 0.21896,-19.70799 0,-20.07294l-45.76633,-0.72994z" id="svg_100"/>
  <text fill="#ff0000" stroke="null" stroke-width="0" stroke-opacity="null" fill-opacity="null" x="1718.207476" y="536.16199" id="svg_101" font-size="24" font-family="Helvetica, Arial, sans-serif" text-anchor="start" xml:space="preserve">VA</text>
  <text fill="#ff0000" stroke="null" stroke-width="0" stroke-opacity="null" fill-opacity="null" x="1765.652609" y="587.986678" id="svg_102" font-size="24" font-family="Helvetica, Arial, sans-serif" text-anchor="start" xml:space="preserve">HC</text>
  <text fill="#ff0000" stroke="null" stroke-width="0" stroke-opacity="null" fill-opacity="null" x="1818.93715" y="527.40289" id="svg_103" font-size="24" font-family="Helvetica, Arial, sans-serif" text-anchor="start" xml:space="preserve">GH</text>
 </g>
</svg>