<svg width="3417.0000000000005" height="2543" xmlns="http://www.w3.org/2000/svg">
 <!-- Created with Method Draw - http://github.com/duopixel/Method-Draw/ -->
 <g>
  <title>background</title>
  <rect fill="none" id="canvas_background" height="2545" width="3419" y="-1" x="-1"/>
  <g display="none" overflow="visible" y="0" x="0" height="100%" width="100%" id="canvasGrid">
   <rect fill="url(#gridpattern)" stroke-width="0" y="0" x="0" height="100%" width="100%"/>
  </g>
 </g>
 <g>
  <title>Layer 1</title>
  <path id="svg_3" d="m201.05235,236.8417l28.42101,0.00007l-3.15789,52.63151l34.73679,2.10526l0,26.31575c0.00001,1.05256 -12.63155,1.05256 -12.63155,1.05256c0,0 -2.10527,10.5263 -2.10527,10.5263c0,0 12.63157,0 12.63156,-1.05256c0.00001,1.05256 0.00001,24.21042 0,23.15786c0.00001,1.05256 -31.5789,-1.0527 -31.5789,-2.10526c0,1.05256 0,-31.57897 0,-32.63153c0,1.05256 -35.78942,-0.00007 -35.78942,-1.05263c0,1.05256 0,-8.42111 0,-9.47367c0,1.05256 -11.57893,1.05256 -11.57893,0c0,1.05256 -1.05263,-15.78952 -1.05263,-16.84208c0,1.05256 21.0526,-0.00007 21.0526,-1.05263l1.05263,-51.57895z" stroke-width="1.5" fill="#5f00bf"/>
  <text transform="rotate(-88.970458984375 215.35937500000003,273.6796875) " xml:space="preserve" text-anchor="start" font-family="Helvetica, Arial, sans-serif" font-size="24" id="svg_4" y="282.104798" x="188.420789" stroke-width="0" stroke="#000" fill="#ff0000">FAIR</text>
  <path id="svg_6" d="m414.50119,693.12539c0,0 99.99936,3.81677 99.23601,3.81676c0.76335,0.00001 0,29.00746 -0.76335,29.00745c0.76335,0.00001 -99.99937,-5.34347 -100.76272,-5.34348l2.29006,-27.48073z" stroke-width="1.5" fill="#5f00bf"/>
  <text xml:space="preserve" text-anchor="start" font-family="Helvetica, Arial, sans-serif" font-size="24" id="svg_7" y="715.262651" x="438.165158" stroke-width="0" fill="#ff0000">EHS</text>
  <path id="svg_8" d="m630.530354,728.239668l-0.000001,24.427315l0.000001,-24.427315z" stroke-width="1.5" fill="#5f00bf"/>
  <path id="svg_9" d="m651.90426,728.23967l-21.37391,-0.00001l0,23.66397c0,0.00001 -5.34347,3.05343 -5.34347,2.29007c0,-0.76335 0,27.48074 0,27.48073c0,0.00001 6.87018,1.52672 6.87018,0.76337c0,-0.76336 -0.76335,20.61055 -0.76335,20.61054c0,0.00001 21.37391,2.29008 21.37391,2.29007c0,0.00001 -0.76336,-7.63353 -0.76336,-7.63353c0,0 71.75528,-0.76336 72.51863,-0.76336c0.76335,0 -1.52671,-64.12173 -1.52671,-64.12173c0,0 -70.99192,3.05342 -70.99192,3.05342l0,-7.63354z" stroke-width="1.5" fill="#5f00bf"/>
  <text xml:space="preserve" text-anchor="start" font-family="Helvetica, Arial, sans-serif" font-size="24" id="svg_10" y="769.460781" x="650.377557" stroke-width="0" fill="#ff0000">AMG</text>
  <path id="svg_11" d="m629.00365,961.06262c0,0 0.76335,-62.59502 0.76335,-62.59503c0,0.00001 24.42733,0.00001 24.42733,0c0,0.00001 3.05341,8.3969 3.05341,8.39689c0,0.00001 48.85465,-3.81676 48.85465,-3.81677c0,0.00001 6.10684,-9.92359 6.10684,-9.92359c0,0 6.87018,-0.76335 6.87018,-0.76337c0,0.00002 1.52671,8.39691 1.52671,7.63356c0,-0.76336 31.29751,-1.52671 31.29751,-1.52672c0,0.00001 0.76336,6.10684 0.76336,6.10684c0,0 55.72483,-1.52671 55.72483,-1.52672c0,0.00001 0.76336,-5.34347 0.76335,-5.34348c0.00001,0.00001 25.19069,-0.76334 25.19068,-0.76335c0.00001,0.00001 0.76336,4.58013 0.76336,4.58013c0,0 7.63354,0 7.63354,-0.00001c0,0.00001 1.52671,9.92362 1.52671,9.92362c0,0 -9.9236,0 -9.92361,-0.00002c0.00001,0.00002 3.81678,46.56461 3.81677,46.56459c0.00001,0.00002 -39.6944,0.76337 -38.93104,0.76337c0.76335,0 3.05341,-35.87763 3.05341,-35.87763c0,0 -154.1975,-1.52671 -154.1975,-1.52673c0,0.00002 0,38.93107 0,38.16771l-19.08384,1.52671z" stroke-width="1.5" fill="#5f00bf"/>
  <text xml:space="preserve" text-anchor="start" font-family="Helvetica, Arial, sans-serif" font-size="24" id="svg_12" y="926.711695" x="574.805515" stroke-width="0" fill="#ff0000">VET</text>
  <path id="svg_14" d="m846.2293,990.1637l-0.65572,27.21312c0.32785,0.32785 5.57375,0.65572 5.57375,0.65572c0,0 0.32787,6.22951 0.00002,5.90166c0.32785,0.32785 -3.93445,0.65572 -4.26229,0.32787c0.32784,0.32785 0.98358,6.22949 0.65574,5.90164c0.32784,0.32785 3.9344,0.65572 4.26227,0.65572c0.32787,0 -0.65574,20.9836 -0.98359,20.65575c0.32785,0.32785 -42.95083,0.98358 -43.27868,0.65573c0.32785,0.32785 0.98359,38.36063 0.98359,38.36063c0,0 15.08196,0.32787 14.75412,0.00002c0.32784,0.32785 2.29506,-1.96723 2.29506,-1.96723c0,0 26.88523,-0.32787 26.88523,-0.32787c0,0 2.29509,7.86885 1.96724,7.541c0.32785,0.32785 31.14751,0.32785 30.81967,0c0.32784,0.32785 0.32784,-7.21313 0,-7.54098c0.32784,0.32785 47.21308,1.31146 46.88523,0.98361c0.32785,0.32785 -0.00002,-13.44264 -0.32787,-13.77049c0.32785,0.32785 2.9508,-0.00002 2.9508,-0.00002c0,0 0,-9.18033 -0.32785,-9.50818c0.32785,0.32785 -2.95084,-0.32788 -3.27869,-0.65573c0.32785,0.32785 0.65572,-14.42625 0.32787,-14.7541c0.32785,0.32785 -42.62296,-0.00002 -42.95081,-0.32787c0.32785,0.32785 -0.98363,-32.45903 -1.31147,-32.78688c0.32784,0.32785 5.57374,-0.65575 5.2459,-0.9836c0.32784,0.32785 -0.00002,-26.88526 -0.32787,-27.21311l-45.90165,0.98359z" stroke-width="1.5" fill="#5f00bf"/>
  <text xml:space="preserve" text-anchor="start" font-family="Helvetica, Arial, sans-serif" font-size="24" id="svg_15" y="1076.065316" x="841.967005" stroke-opacity="null" stroke-width="0" stroke="null" fill="#ff0000">KOM</text>
  <path id="svg_16" d="m821.311271,1280.9833c0,0 0,-99.01637 0,-99.01637c0,0 99.999976,0 99.672131,-0.327848c0.327845,0.327848 0.655714,99.016349 0.327869,98.688503" stroke-opacity="null" stroke-width="1.5" stroke="null" fill="#5f00bf"/>
  <text xml:space="preserve" text-anchor="start" font-family="Helvetica, Arial, sans-serif" font-size="24" id="svg_17" y="1236.393147" x="855.737493" stroke-opacity="null" stroke-width="0" stroke="null" fill="#ff0000">PH</text>
  <path id="svg_18" d="m628.54524,1208.44115l42.88309,-1.01301c0.25975,0.15587 1.68832,5.01301 1.68832,5.01301c0,0 10.57143,-0.57143 10.31168,-0.7273c0.25975,0.15587 -0.02597,25.87015 -0.02597,25.87015c0,0 8.85714,0 8.59739,-0.15587c0.25975,0.15587 1.1169,31.013 0.85715,30.85713c0.25975,0.15587 -8.31168,0.44158 -8.57143,0.28572c0.25975,0.15586 0.54547,25.58443 0.28572,25.42856c0.25975,0.15587 -7.45454,-0.70128 -7.71429,-0.85714c0.25975,0.15586 -5.45453,3.87015 -5.71428,3.71428c0.25975,0.15587 -14.31168,0.44158 -14.57142,0.28572c0.25974,0.15586 -0.02597,5.58443 -0.28572,5.42857c0.25975,0.15586 -10.02596,-0.41557 -10.28571,-0.57143c0.25975,0.15586 -2.02596,-6.41556 -2.28571,-6.57143c0.25975,0.15587 -14.31168,-0.98699 -14.31168,-0.98699l-0.85714,-85.99997z" stroke-opacity="null" stroke-width="1.5" stroke="null" fill="#5f00bf"/>
  <text xml:space="preserve" text-anchor="start" font-family="Helvetica, Arial, sans-serif" font-size="24" id="svg_19" y="1259.869703" x="635.116666" stroke-opacity="null" stroke-width="0" stroke="null" fill="#ff0000">JUB</text>
  <path id="svg_21" d="m387.42211,1720.71927c0.40393,0.67204 3.09278,-44.32984 3.09278,-43.81438c0,0.51547 -7.21649,0.51547 -7.52574,0.41235c0.30925,0.10312 0.30925,-7.11337 0,-7.21649c0.30925,0.10312 54.94835,4.22683 54.6391,4.12371c0.30925,0.10312 2.3711,-32.37106 2.06186,-32.47418c0.30924,0.10312 -50.72161,-1.95874 -51.03086,-2.06185c0.30925,0.10311 0.82471,-6.08245 0.82471,-6.08245c0,0 -14.43297,0 -14.74222,-0.10311c0.30925,0.10311 -1.7526,44.43295 -1.23714,43.91749c0.51546,-0.51547 -49.48447,-3.09278 -49.79371,-3.1959c0.30924,0.10312 -0.72168,32.5773 -0.72168,32.5773c0,0 44.8453,0.51546 44.53605,0.41234c0.30925,0.10312 -0.20622,11.95878 -0.20622,11.95878l20.10307,1.54639z" stroke-opacity="null" stroke-width="1.5" stroke="null" fill="#5f00bf"/>
  <text xml:space="preserve" text-anchor="start" font-family="Helvetica, Arial, sans-serif" font-size="24" id="svg_22" y="1662.987387" x="387.937571" stroke-opacity="null" stroke-width="0" stroke="null" fill="#ff0000">ING</text>
  <path id="svg_23" d="m446.093081,1800.788067l0.143346,-7.95706l6.093188,0.358423l0.358423,-8.960571l-5.734765,0.358423l1.433691,-7.885302l-29.032249,1.792114l-1.075268,9.318994l3.584228,-0.716846l-0.358423,13.620068l24.58783,0.071757z" stroke-opacity="null" stroke-width="1.5" stroke="null" fill="#5f00bf"/>
  <text xml:space="preserve" text-anchor="start" font-family="Helvetica, Arial, sans-serif" font-size="24" id="svg_24" y="1808.314946" x="342.150457" stroke-opacity="null" stroke-width="0" stroke="null" fill="#ff0000">ALOF</text>
  <path id="svg_25" d="m399.85653,1850.60884l1.21862,-17.9929l7.16846,1.43369l0,-4.65949l4.30107,0.71684l0.71685,-8.24372l4.30107,1.07526l0.71685,-7.16845c0.21507,0.07176 28.8889,1.14702 28.8889,1.14702c0,0 0,3.94266 -0.21508,3.8709c0.21508,0.07176 7.74196,0.43018 7.52688,0.35842c0.21508,0.07176 -1.57704,30.17928 -1.79211,30.10752c0.21507,0.07176 -22.72399,-1.36193 -22.93906,-1.43369c0.21507,0.07176 0.5735,-6.73828 0.35842,-6.81004c0.21508,0.07176 -4.80284,-0.64508 -5.01792,-0.71684c0.21508,0.07176 0.21508,4.73125 0,4.65949c0.21508,0.07176 -8.02865,0.07176 -8.24373,0c0.21508,0.07176 0.21508,-4.22931 0,-4.30107c0.21508,0.07176 -3.36915,0.07176 -3.58422,0c0.21507,0.07176 0.21507,10.1076 0.21507,9.74918l-13.62007,-1.79212z" stroke-opacity="null" stroke-width="1.5" stroke="null" fill="#5f00bf"/>
  <text xml:space="preserve" text-anchor="start" font-family="Helvetica, Arial, sans-serif" font-size="24" id="svg_26" y="1850.608841" x="318.136127" stroke-opacity="null" stroke-width="0" stroke="null" fill="#ff0000">ALUM</text>
  <path id="svg_27" d="m97.63311,1539.1716l-1.18341,-24.37873l-5.91716,0.59171l0,-59.1716l7.10059,0l-0.59171,-23.66863l-49.70414,0c0.59169,0.11837 -0.00003,22.01186 -0.00003,22.01186c0,0 26.03551,0 25.44381,-0.11837c0.5917,0.11837 0.5917,13.13612 0,13.01775c0.5917,0.11837 -56.21304,0.71009 -56.80473,0.59171c0.59169,0.11838 1.18341,30.88761 0.59172,30.76923c0.59169,0.11838 55.62128,0.7101 55.02958,0.59172c0.5917,0.11838 0.5917,11.36098 0.5917,11.36098c0,0 -21.30178,1.18343 -21.89347,1.06506c0.59169,0.11837 0.59169,27.33731 0,27.21893l47.33725,0.11838z" stroke-opacity="null" stroke-width="1.5" stroke="null" fill="#5f00bf"/>
  <text xml:space="preserve" text-anchor="start" font-family="Helvetica, Arial, sans-serif" font-size="24" id="svg_28" y="1491.834318" x="27.810626" stroke-opacity="null" stroke-width="0" stroke="null" fill="#ff0000">PCS</text>
  <path id="svg_30" d="m1051.35885,1283.42935l-0.47336,-80.47316l44.37861,1.18343l-0.59172,-8.87572l15.38459,0.59171l7.69229,-20.1183c0.47336,0.59167 9.94079,4.14196 9.94079,4.14196c0,0 -2.95857,5.91714 -2.95857,5.91714c0,0 28.40231,-0.59171 28.40231,-0.59171c0,0 0.59171,5.91715 0.11836,5.32548c0.47335,0.59167 -6.62723,-0.59176 -7.10058,-1.18343c0.47335,0.59167 0.47335,14.20111 0.47335,14.20111c0,0 5.32544,0 4.85208,-0.59167c0.47336,0.59167 0.47336,10.0591 0,9.46744c0.47336,0.59166 -3.66865,-0.00005 -3.66865,-0.00005c0,0 0.59172,19.52659 0.11836,18.93492c0.47336,0.59167 11.12423,-0.00005 10.65087,-0.59171c0.47336,0.59166 0.47336,22.48511 0,21.89344c0.47336,0.59167 -10.76923,0.59167 -11.24258,0c0.47335,0.59167 1.65678,30.76912 1.65678,30.76912l-97.63293,0z" stroke-opacity="null" stroke-width="1.5" stroke="null" fill="#5f00bf"/>
  <text xml:space="preserve" text-anchor="start" font-family="Helvetica, Arial, sans-serif" font-size="24" id="svg_31" y="1247.926464" x="1066.74343" stroke-opacity="null" stroke-width="0" stroke="null" fill="#ff0000">TODD</text>
  <path id="svg_32" d="m1179.16924,1266.26962l-2.2485,-55.62114l15.9763,-0.59171l0.59171,-19.52659l33.13603,0.59171l-0.59171,-9.46743l5.91715,0l0.59171,5.32543c0.47335,0.59167 21.18337,-0.00005 21.18337,-0.00005c0,0 0.59171,-4.73372 0.11836,-5.32538c0.47335,0.59166 5.79879,-0.00005 5.32544,-0.59172c0.47335,0.59167 1.65678,6.50882 1.18343,5.91715c0.47335,0.59167 8.16564,-0.00005 7.69229,-0.59171c0.47335,0.59166 4.61535,6.50881 4.142,5.91714c0.47335,0.59167 22.3668,-0.59176 21.89345,-1.18343c0.47335,0.59167 4.02364,62.13001 4.02364,62.13001c0,0 -20.1183,0 -20.59165,-0.59167c0.47335,0.59167 -0.11837,7.10053 -0.59172,6.50887c0.47335,0.59166 -16.09466,0.59166 -16.09466,0.59166c0,0 -2.36686,13.01773 -2.84021,12.42606c0.47335,0.59167 -72.89928,2.95852 -73.37264,2.36686l-5.44379,-8.28406z" stroke-opacity="null" stroke-width="1.5" stroke="null" fill="#5f00bf"/>
  <text xml:space="preserve" text-anchor="start" font-family="Helvetica, Arial, sans-serif" font-size="24" id="svg_33" y="1238.459028" x="1205.796403" stroke-opacity="null" stroke-width="0" stroke="null" fill="#ff0000">KUC</text>
  <path id="svg_34" d="m1044.84998,1053.84402c0,0 43.7869,-1.18343 43.31354,-1.7751c0.47336,0.59167 -0.11836,15.97625 -0.11836,15.97625c0,0 -11.83429,1.18343 -12.30765,0.59176c0.47336,0.59167 1.06507,75.14773 0.59171,74.55607c0.47336,0.59166 13.49109,1.77509 13.01773,1.18343c0.47336,0.59166 0.47336,16.56796 0,15.97629c0.47336,0.59167 -42.72182,1.7751 -43.19518,1.18343c0.47336,0.59167 -0.71007,-16.56806 -0.71007,-16.56806c0,0 11.83429,0 11.83429,0c0,0 0,-27.81059 -0.47336,-28.40226c0.47336,0.59167 -5.44378,-0.00005 -5.91714,-0.59172c0.47336,0.59167 1.06507,-21.89349 0.59171,-22.48516c0.47336,0.59167 5.20708,0.59167 4.73372,0c0.47336,0.59167 -1.30179,-24.26035 -1.77514,-24.85202c0.47335,0.59167 -9.5858,-0.00004 -10.05916,-0.59171l0.47336,-14.2012z" stroke-opacity="null" stroke-width="1.5" stroke="null" fill="#5f00bf"/>
  <text xml:space="preserve" text-anchor="start" font-family="Helvetica, Arial, sans-serif" font-size="24" id="svg_35" y="1114.198925" x="1016.44767" stroke-opacity="null" stroke-width="0" stroke="null" fill="#ff0000">JH</text>
  <path id="svg_36" d="m1231.24014,1095.85577c0,0 1.18343,-27.21888 1.18343,-27.21888c0,0 54.43776,2.36686 53.96441,1.77518c0.47335,0.59168 0.47335,27.21884 0,26.62717l-55.14784,-1.18347z" stroke-opacity="null" stroke-width="1.5" stroke="null" fill="#5f00bf"/>
  <text xml:space="preserve" text-anchor="start" font-family="Helvetica, Arial, sans-serif" font-size="24" id="svg_37" y="1091.122049" x="1244.257863" stroke-opacity="null" stroke-width="0" stroke="null" fill="#ff0000">FH</text>
  <path id="svg_39" d="m1036.56598,899.99818l20.82837,-1.77511l1.18343,4.73372c0.47336,0.59167 5.20708,1.18339 5.79879,1.18339c0.59172,0 10.05915,37.86974 9.58579,37.27807c0.47336,0.59167 5.20708,-0.00004 4.73372,-0.59172c0.47336,0.59168 1.06507,11.24255 0.59172,10.65087c0.47335,0.59168 -4.85208,0.59168 -5.32544,0c0.47336,0.59168 0.47336,37.27799 0,36.68632c0.47336,0.59167 -9.58579,-0.00004 -10.05915,-0.59172c0.47336,0.59168 0.47336,11.83426 0,11.24258c0.47336,0.59168 -3.66864,1.18339 -4.142,0.59172c0.47336,0.59167 -0.71007,5.32539 -1.18343,4.73372c0.47336,0.59167 -20.82837,-0.00004 -21.30173,-0.59172c0.47336,0.59168 1.65679,-15.97634 1.18343,-16.56801c0.47336,0.59167 9.34908,1.18339 8.87572,0.59171c0.47336,0.59168 1.06507,-27.21892 1.06507,-27.21892c0,0 -7.69229,0 -8.16565,-0.59167c0.47336,0.59167 0.47336,-16.56806 0,-17.15973c0.47336,0.59167 7.57394,0.59167 7.10058,0c0.47336,0.59167 0.47336,-27.21892 0,-27.8106c0.47336,0.59168 -11.36094,1.18339 -11.8343,0.59172l1.06508,-15.38462z" stroke-width="1.5" fill="#5f00bf"/>
  <text transform="rotate(-89.94056701660156 1060.6976318359375,957.3933715820311) " xml:space="preserve" text-anchor="start" font-family="Helvetica, Arial, sans-serif" font-size="24" id="svg_40" y="965.678517" x="1037.749406" stroke-opacity="null" stroke-width="0" stroke="null" fill="#ff0000">SFA</text>
  <path id="svg_43" d="m1157.27579,977.51281l-0.47335,-19.52655c0.47335,0.59168 4.02364,-0.59175 4.61535,-0.59175c0.59172,0 0,-4.73372 -0.47335,-5.3254c0.47335,0.59168 -4.26036,0.59168 -4.73372,0c0.47336,0.59168 0.47336,-13.01776 0,-13.60944c0.47336,0.59168 5.79879,-1.18346 5.32543,-1.77514c0.47336,0.59168 -4.85207,-2.95861 -5.32543,-3.55029c0.47336,0.59168 0.47336,-8.87576 0,-9.46744c0.47336,0.59168 -5.44379,1.1834 -5.91715,0.59172c0.47336,0.59168 -0.71007,-4.73376 -1.18343,-5.32543c0.47336,0.59167 -33.25438,1.7751 -33.72774,1.18343c0.47336,0.59167 -1.30179,11.83425 -0.71007,11.83425c0.59171,0 -34.91118,-0.59171 -35.38453,-1.18339c0.47335,0.59168 0.47335,21.89341 0,21.30173c0.47335,0.59168 15.85794,-1.18346 15.38458,-1.77514c0.47336,0.59168 -1.30179,42.01171 -1.77514,41.42004c0.47335,0.59167 23.55023,0.59167 23.07687,0c0.47336,0.59167 1.06508,-8.28405 0.59172,-8.87573c0.47336,0.59168 13.49108,1.77511 13.01772,1.18343c0.47336,0.59168 1.06508,-3.55032 0.59172,-4.142c0.47336,0.59168 9.94079,1.18339 9.46744,0.59172" stroke-width="1.5" fill="#5f00bf"/>
  <text xml:space="preserve" text-anchor="start" font-family="Helvetica, Arial, sans-serif" font-size="24" id="svg_44" y="962.719941" x="1097.512598" stroke-width="0" fill="#ff0000">WMB</text>
  <path id="svg_45" d="m1196.92068,907.69047l-1.77514,104.1418c0,0 25.44373,0 24.97038,-0.59168c0.47335,0.59168 0.47335,-10.05919 0.47335,-10.05919c0,0 7.10058,0 6.62723,-0.59167c0.47335,0.59167 0.47335,-31.36093 0,-31.9526c0.47335,0.59167 12.89936,0.59167 12.42601,0c0.47335,0.59167 38.3431,10.65083 37.86975,10.05915c0.47335,0.59168 3.43192,-9.46748 2.95857,-10.05915c0.47335,0.59167 6.3905,0.59167 5.91715,0c0.47335,0.59167 4.02364,-4.14204 3.55029,-4.73372c0.47335,0.59168 0.47335,-20.71006 0,-21.30173c0.47335,0.59167 -3.66866,-4.14204 -4.14201,-4.73372c0.47335,0.59168 -3.66865,0.59168 -4.142,0c0.47335,0.59168 -3.07694,-8.87576 -3.55029,-9.46744c0.47335,0.59168 -35.62125,7.69226 -36.0946,7.10058c0.47335,0.59168 -13.13609,1.77511 -13.60944,1.18343c0.47335,0.59168 1.65678,-28.99406 1.65678,-28.99406l-33.13603,0z" stroke-width="1.5" fill="#5f00bf"/>
  <text xml:space="preserve" text-anchor="start" font-family="Helvetica, Arial, sans-serif" font-size="24" id="svg_46" y="960.944797" x="1203.429543" fill-opacity="null" stroke-opacity="null" stroke-width="0" stroke="null" fill="#ff0000">BDA</text>
  <path id="svg_47" d="m1354.90853,886.98045l35.62125,1.18347c0.47335,0.59167 -3.07694,76.33117 -3.07694,76.33117c0,0 15.38458,0 14.91124,-0.59168c0.47334,0.59168 0.47334,-6.5089 0,-7.10058c0.47334,0.59168 27.10051,-0.00004 26.62716,-0.59171c0.47335,0.59167 0.47335,10.05911 0,9.46744c0.47335,0.59167 4.61535,0.59167 4.14201,0c0.47334,0.59167 1.65677,18.93483 1.18343,18.34315c0.47334,0.59168 -10.17752,8.28397 -10.65087,7.6923c0.47335,0.59167 -0.11837,7.10053 -0.59171,6.50886c0.47334,0.59167 -33.84612,-0.59176 -34.31946,-1.18343c0.47334,0.59167 -0.11837,-4.73376 -0.59172,-5.32543c0.47335,0.59167 -8.99409,0.59167 -9.46743,0c0.47334,0.59167 -0.11837,12.42597 -0.59172,11.83429c0.47335,0.59168 -27.33725,1.18339 -27.81059,0.59172c0.47334,0.59167 1.65677,-47.92894 1.18343,-48.52062c0.47334,0.59168 9.34906,1.18339 8.87572,0.59172c0.47334,0.59167 0.47334,-5.32547 0.47334,-5.32547c0,0 -8.87572,0.59171 -9.34906,0.00004l3.43192,-63.90524z" fill-opacity="null" stroke-opacity="null" stroke-width="1.5" stroke="null" fill="#5f00bf"/>
  <text xml:space="preserve" text-anchor="start" font-family="Helvetica, Arial, sans-serif" font-size="24" id="svg_48" y="986.388533" x="1356.68367" fill-opacity="null" stroke-opacity="null" stroke-width="0" stroke="null" fill="#ff0000">CKNB</text>
  <path id="svg_49" d="m1535.73655,505.32442c0,0 20.1183,0 19.88166,-0.59169c0.23664,0.59169 2.01178,-4.14203 2.01178,-4.14203c0,0 7.10058,0.59172 7.10058,0.59172c0,0 2.36686,34.31945 2.13022,33.72776c0.23664,0.59169 -6.86394,1.18341 -7.10057,0.59171c0.23663,0.5917 -0.9468,7.10056 -0.9468,7.10056c0,0 -15.38458,0.59171 -15.62122,0.00002c0.23664,0.59169 -0.94679,-6.50888 -1.18343,-7.10058c0.23664,0.5917 -6.86394,0.5917 -6.27222,0.5917l0,-30.76917z" fill-opacity="null" stroke-opacity="null" stroke-width="1.5" stroke="null" fill="#5f00bf"/>
  <text xml:space="preserve" text-anchor="start" font-family="Helvetica, Arial, sans-serif" font-size="24" id="svg_50" y="525.442721" x="1559.405139" fill-opacity="null" stroke-opacity="null" stroke-width="0" stroke="null" fill="#ff0000">TCM</text>
  <path id="svg_51" d="m1626.26891,523.07586c0,-0.59171 23.66859,0 23.43196,-0.59169c0.23663,0.59169 2.01177,-14.20118 1.77514,-14.79287c0.23663,0.59169 34.55609,1.18341 34.31946,0.59171c0.23663,0.5917 0.23663,10.7692 0.23663,10.7692c0,0 87.57379,3.55029 87.33716,3.43196c0.23663,0.11833 0.82834,-11.12425 0.59171,-11.24258c0.23663,0.11833 25.68037,0.71004 25.44374,0.59171c0.23663,0.11833 0.23663,16.09463 0,15.9763c0.23663,0.11833 24.49693,0.71005 24.26031,0.59172c0.23662,0.11833 -0.9468,65.20695 -1.18343,65.08863c0.23663,0.11832 -6.27224,-1.06511 -6.50887,-1.18343c0.23663,0.11832 2.01178,12.54433 2.01178,13.13605c0,0.59171 -10.05915,1.18343 -10.29578,1.0651c0.23663,0.11833 -0.9468,-12.8994 -1.18343,-13.01772c0.23663,0.11832 -8.04738,-0.47339 -8.28401,-0.59172c0.23663,0.11833 -0.9468,19.0532 -1.18343,18.93487c0.23663,0.11833 -24.61539,1.89347 -24.85202,1.77515c0.23663,0.11832 -0.9468,-9.34911 -1.18343,-9.46744c0.23663,0.11833 -7.45566,-1.0651 -7.69229,-1.18343c0.23663,0.11833 -0.35509,-7.57396 -0.59172,-7.69229c0.23663,0.11833 -7.45566,0.11833 -8.04737,0.11833c-0.59172,0 -4.73372,55.02947 -4.97035,54.91115c0.23663,0.11832 -128.16548,-1.06511 -128.40212,-1.18343c0.23664,0.11832 2.6035,-62.01173 2.36686,-62.13006c0.23664,0.11833 -6.27222,0.71004 -6.50886,0.59172c0.23664,0.11832 2.01178,-16.44969 1.77515,-16.56802c0.23663,0.11833 7.92892,0.71004 7.69229,0.59172l-0.35508,-48.52064z" fill-opacity="null" stroke-opacity="null" stroke-width="1.5" stroke="null" fill="#5f00bf"/>
  <text xml:space="preserve" text-anchor="start" font-family="Helvetica, Arial, sans-serif" font-size="24" id="svg_52" y="578.815401" x="1687.807246" fill-opacity="null" stroke-opacity="null" stroke-width="0" stroke="null" fill="#ff0000">TLC</text>
  <path id="svg_53" d="m1498.45852,492.78008l2.72193,-32.42596c0.23664,0.47336 -4.49708,-0.11836 -4.49708,-0.11836c0,0 -2.36686,8.28401 -2.6035,7.81065c0.23664,0.47336 -44.14196,-3.07693 -44.37861,-3.55029c0.23665,0.47336 -0.35507,-9.58579 -0.59171,-10.05915c0.23664,0.47336 -4.49708,1.65679 -4.49708,1.65679c0,0 -1.77514,27.81059 -2.01179,27.33723c0.23665,0.47336 5.56208,2.84022 5.32544,2.36686c0.23664,0.47336 0.82836,-7.21893 0.59171,-7.69229c0.23665,0.47336 44.02354,4.61537 44.02354,4.61537c0,0 0,8.284 -0.23664,7.81064l6.15379,2.24851z" fill-opacity="null" stroke-opacity="null" stroke-width="1.5" stroke="null" fill="#5f00bf"/>
  <text xml:space="preserve" text-anchor="start" font-family="Helvetica, Arial, sans-serif" font-size="24" id="svg_54" y="479.170636" x="1503.78395" fill-opacity="null" stroke-opacity="null" stroke-width="0" stroke="null" fill="#ff0000">HOB</text>
  <path id="svg_56" d="m1491.949655,785.678909l-0.828356,17.278076l-5.325433,4.142004l7.692292,8.284007l13.017726,-9.467437l4.142004,14.201155l13.60944,1.775144l3.550289,-5.325433l-3.550289,-10.650866l1.18343,-13.60944l-19.526588,0.591715l-1.18343,-8.284007l-12.781084,1.065083z" fill-opacity="null" stroke-opacity="null" stroke-width="1.5" stroke="null" fill="#5f00bf"/>
  <text xml:space="preserve" text-anchor="start" font-family="Helvetica, Arial, sans-serif" font-size="24" id="svg_57" y="814.672934" x="1528.044256" fill-opacity="null" stroke-opacity="null" stroke-width="0" stroke="null" fill="#ff0000">HMA</text>
  <path id="svg_58" d="m1491.949655,914.081016c0,0 41.420034,1.18343 41.183395,0.710066c0.23664,0.473363 5.562073,7.573941 5.325433,7.100578c0.23664,0.473363 0.23664,14.674518 0,14.201155c0.23664,0.473362 6.745502,1.065077 6.508863,0.591715c0.236639,0.473362 0.828354,8.165655 0.591715,7.692292c0.236639,0.473362 -6.863938,-0.710067 -7.100578,-1.18343c0.23664,0.473362 -0.355075,31.834245 -0.591715,31.360884c0.23664,0.473361 -8.639082,11.715942 -8.875722,11.242581c0.23664,0.473361 -31.124243,0.473361 -31.360884,0c0.236641,0.473361 2.011786,-16.686368 1.775144,-17.159729c0.236641,0.473361 -10.414225,1.656791 -10.650866,1.18343c0.236642,0.473361 3.195215,-20.828371 2.958574,-21.301733c0.236641,0.473362 4.97036,2.248506 4.733718,1.775144c0.236641,0.473362 2.011786,-22.0118 1.775144,-22.485162c0.236641,0.473363 -11.597654,1.656792 -11.597654,1.656792c0,0 -0.591715,-5.917148 -0.591715,-6.508863c0,-0.591715 5.325433,0.591715 5.088792,0.118352c0.236641,0.473363 0.828356,-8.994073 0.828356,-8.994073z" fill-opacity="null" stroke-opacity="null" stroke-width="1.5" stroke="null" fill="#5f00bf"/>
  <text transform="rotate(-89.67705535888672 1519.050537109375,949.5834960937498) " xml:space="preserve" text-anchor="start" font-family="Helvetica, Arial, sans-serif" font-size="24" id="svg_59" y="957.86791" x="1493.724799" fill-opacity="null" stroke-opacity="null" stroke-width="0" stroke="null" fill="#ff0000">SAG</text>
  <path id="svg_60" d="m1635.736346,955.50105c0,0 -1.18343,4.733718 -1.420065,4.260357c0.236636,0.473362 6.745498,1.656791 6.745498,1.656791c0,0 0,4.733718 -0.236636,4.260357c0.236636,0.473361 -4.497083,1.656791 -4.733718,1.18343c0.236636,0.473361 2.01178,7.573939 2.01178,7.573939c0,0 -4.142003,0.591715 -4.378639,0.118354c0.236636,0.473361 0.236636,6.390509 0,5.917148c0.236636,0.473361 4.378639,3.431935 4.142004,2.958574c0.236636,0.473361 -0.946794,16.44966 -1.18343,15.9763c0.236636,0.47336 17.988079,-0.118355 17.751444,-0.591715c0.236635,0.47336 -1.538509,-9.585791 -1.775144,-10.059152c0.236635,0.47336 49.348962,-0.118354 49.112328,-0.591715c0.236633,0.47336 -1.538511,-6.035502 -1.775144,-6.508863c0.236633,0.473361 17.988076,-0.118354 18.579791,-0.118354c0.591715,0 -0.591715,-9.467436 0,-8.875722c0.591715,0.591715 -4.142003,-8.875722 -4.378636,-9.349083c0.236633,0.473361 -39.999972,1.065076 -40.236606,0.591715c0.236634,0.473361 -0.355081,-7.218931 -0.591715,-7.692292c0.236634,0.473362 -37.633112,-0.710068 -37.633112,-0.710068z" fill-opacity="null" stroke-opacity="null" stroke-width="1.5" stroke="null" fill="#5f00bf"/>
  <path id="svg_64" d="m1607.334036,1262.60102l13.964518,22.011813" opacity="0.5" fill-opacity="null" stroke-opacity="null" stroke-width="1.5" stroke="null" fill="#5f00bf"/>
  <path id="svg_68" d="m1589.529272,1279.730894c-13.422812,4.697984 -24.161061,0.67114 -24.161061,0.67114c0,0 0,-4.026843 0,-4.026843c0,0 -18.791936,-0.671141 -19.06034,-1.20811c0.268404,0.536969 0.268404,-14.899264 0,-15.436233c0.268404,0.536969 -13.825549,0.536969 -14.093952,0c0.268403,0.536969 0.939544,-80.671042 0.671141,-81.208009c0.268403,0.536967 8.32209,1.208108 8.053687,0.671141c0.268403,0.536967 2.952965,-50.469717 2.684562,-51.006683c0.268403,0.536966 8.32209,-0.134175 8.32209,-0.134175c0,0 6.711406,-8.053687 6.443002,-8.590653c0.268404,0.536966 17.718059,1.208107 17.718059,1.208107c0,0 0,-4.026844 -0.268404,-4.56381c0.268404,0.536966 13.691216,-3.489877 13.422812,-4.026843c0.268404,0.536966 14.362356,4.563809 14.093952,4.026843c0.268404,0.536966 2.281826,5.23495 2.013421,4.697984c0.268405,0.536966 15.704638,0.536966 15.436233,0c0.268405,0.536966 6.30867,8.590653 6.040265,8.053687c0.268405,0.536966 8.322092,0.536966 8.053687,0c0.268405,0.536966 1.610687,52.214791 1.342281,51.677824c0.268406,0.536967 9.664374,-0.134173 13.691218,0.536967l3.087297,30.335499c0.268405,0.536968 -5.77186,-0.134173 -6.040265,-0.67114c0.268405,0.536967 0.939545,14.63092 0.67114,14.093952c0.268405,0.536968 5.63753,1.208108 5.369125,0.67114c0.268405,0.536968 0.268405,44.832247 0,44.295278c0.268405,0.536969 -18.523531,1.208109 -18.791936,0.67114c0.268405,0.536969 -22.550375,1.20811 -22.81878,0.671141c0.268405,0.536969 -0.402736,5.906093 -0.67114,5.369124c0.268404,0.536969 -7.785283,-1.476452 -21.208094,3.221532z" fill-opacity="null" stroke-opacity="null" stroke-width="1.5" stroke="null" fill="#5f00bf"/>
  <text xml:space="preserve" text-anchor="start" font-family="Helvetica, Arial, sans-serif" font-size="24" id="svg_69" y="1213.287976" x="1567.381633" fill-opacity="null" stroke-opacity="null" stroke-width="0" stroke="null" fill="#ff0000">BAS</text>
  <path id="svg_73" d="m1711.27419,1201.878586l-1.20802,59.865684l12.08053,0.67114l-0.67114,16.778515l8.724827,-0.671141c0.53688,0.536969 0.53688,4.563813 0.53688,4.563813c0,0 88.590556,4.026843 88.053675,3.489874c0.536881,0.536969 -0.134259,-9.53014 -0.67114,-10.067109c0.536881,0.536969 6.577146,1.87925 6.577146,1.87925c0,0 4.530199,0.335571 8.892613,-2.348992c4.362414,-2.684562 10.031968,-6.914331 9.360828,-18.994861l7.249901,0.538495l0.320723,-14.023427l-1.449189,-8.197468l-1.421837,-37.376443c0.536881,0.536967 -6.174524,0.536967 -6.174524,0.536967c0,0 -0.671141,-12.751671 -1.208023,-13.288638c0.536882,0.536967 -4.832243,0.536967 -5.369124,0c0.536881,0.536967 -3.489962,5.906092 -4.026844,5.369125c0.536882,0.536967 -14.228211,0.536967 -14.765092,0c0.536881,0.536967 -12.885931,3.221529 -13.422811,2.684562c0.53688,0.536967 -0.13426,27.38259 -0.671141,26.845623c7.732157,0.375392 13.200362,-3.560771 15.260601,1.848748l-0.172443,18.984776c-5.309735,2.359882 -9.152458,5.044446 -10.657079,11.247051l-67.518292,-2.978021l-3.355703,-49.907912l-24.295322,2.550389z" fill-opacity="null" stroke-opacity="null" stroke-width="1.5" stroke="null" fill="#5f00bf"/>
  <text xml:space="preserve" text-anchor="start" font-family="Helvetica, Arial, sans-serif" font-size="24" id="svg_74" y="1275.634331" x="1744.660757" fill-opacity="null" stroke-opacity="null" stroke-width="0" stroke="null" fill="#ff0000">COE</text>
  <path id="svg_75" d="m1644.511635,1351.959522l66.787828,0.218876c0.364894,0.146084 14.963311,-2.773599 14.963311,-19.196819l30.656743,1.678718c0.364895,0.146084 1.094816,8.540174 0.72992,8.39409c0.364896,0.146084 20.802681,-0.583837 20.437785,-0.729921c0.364896,0.146084 -1.824867,21.67875 -2.189763,21.532666c0.364896,0.146084 6.934184,-0.583837 6.569288,-0.729921c0.364896,0.146084 1.459778,7.810254 1.094881,7.664169c0.364897,0.146085 -4.74455,0.511045 -5.109446,0.364961c0.364896,0.146084 0.364896,10.000016 0,9.853931c0.364896,0.146085 4.744422,2.700808 4.379525,2.554723c0.364897,0.146085 -0.000064,14.744503 -0.36496,14.598417c0.364896,0.146086 -5.474471,-0.218874 -5.839367,-0.36496c0.364896,0.146086 -0.365025,27.883079 -0.729921,27.736993c0.364896,0.146086 10.948749,1.240968 10.583852,1.094881c0.364897,0.146087 0.729858,26.788199 0.364961,26.642112c0.364897,0.146087 -118.612208,-1.313755 -118.977101,-1.459842c0.364893,0.146087 2.189695,-31.240511 1.824802,-31.386597c0.364893,0.146086 -13.503604,-1.313756 -13.868496,-1.459842c0.364892,0.146086 0.364892,-14.087371 0,-14.233457c0.364892,0.146086 -11.678802,0.146086 -12.043694,0c0.364892,0.146086 0.729852,-14.087371 0.36496,-14.233457c0.364892,0.146086 -5.474475,0.876007 -5.839367,0.729921c0.364892,0.146086 -4.379594,-8.612965 -4.744485,-8.75905c0.364891,0.146085 8.394021,-4.23344 8.029129,-4.379525c0.364892,0.146085 0.729852,-10.072808 0.364961,-10.218892c0.364891,0.146084 -3.284713,-2.043679 -3.284713,-2.408639c0,-0.36496 -0.729921,-5.109446 -1.094813,-5.25553c0.364892,0.146084 6.93418,0.146084 6.569288,0l0.364892,-8.248006z" fill-opacity="null" stroke-opacity="null" stroke-width="1.5" stroke="null" fill="#5f00bf"/>
  <text xml:space="preserve" text-anchor="start" font-family="Helvetica, Arial, sans-serif" font-size="24" id="svg_76" y="1393.565012" x="1675.168312" fill-opacity="null" stroke-opacity="null" stroke-width="0" stroke="null" fill="#ff0000">BRAGG</text>
  <path id="svg_77" d="m1518.965242,1470.571666l11.678807,0.583833l0.364961,-12.773615c0.364887,0.146087 31.021565,-10.072805 31.021565,-10.072805c0,0 26.277152,0.36496 25.912262,0.218873c0.36489,0.146087 30.291646,10.72994 29.926755,10.583853c0.364891,0.146087 0.729852,12.919703 1.094812,12.919703c0.36496,0 10.218892,-0.364961 9.854001,-0.511049c0.364891,0.146088 1.094812,64.379126 0.729921,64.233036c0.364891,0.14609 -12.408724,0.14609 -12.773615,0c0.364891,0.14609 -3.284714,45.036225 -3.649604,44.890133c0.36489,0.146092 4.744416,1.240973 5.474337,0.876013c0.72992,-0.364961 1.094881,14.963378 1.094881,14.963378c0,0 -25.182271,-2.919684 -25.182271,-2.919684c0,0 -2.554723,3.649605 -2.189762,3.649605c0.36496,0 -36.496045,0.36496 -36.860934,0.218868c0.364889,0.146092 -2.554794,-5.328314 -2.919683,-5.474406c0.364889,0.146092 -23.722501,3.430736 -24.087389,3.284643c0.364888,0.146093 -0.729993,-11.167681 -1.094881,-11.313773c0.364888,0.146092 6.934176,0.511052 6.569288,0.36496c0.364888,0.146092 -0.000072,-48.028686 -0.36496,-48.174776c0.364888,0.14609 -15.693372,-0.218871 -16.058259,-0.364961l1.459768,-65.181829z" fill-opacity="null" stroke-opacity="null" stroke-width="1.5" stroke="null" fill="#5f00bf"/>
  <text xml:space="preserve" text-anchor="start" font-family="Helvetica, Arial, sans-serif" font-size="24" id="svg_78" y="1503.783066" x="1548.891999" fill-opacity="null" stroke-opacity="null" stroke-width="0" stroke="null" fill="#ff0000">LIB</text>
  <path id="svg_79" d="m1893.122761,1374.587069l0.291957,-16.569304l5.474406,0.729921l-0.729921,-6.569288l71.897205,3.649604l-1.094881,-19.707863l21.167705,0l1.094881,6.569288l-3.284643,0.36496l-0.364961,10.948813l2.919684,0.364961l0.36496,5.109446l5.109446,-0.364961l0,22.627547c0.073007,0.146085 -18.904936,-0.218875 -18.904936,-0.218875c0,0 -0.364961,-2.919684 -0.437967,-3.065769c0.073006,0.146085 -3.941559,0.146085 -4.014565,0c0.073006,0.146085 -0.656914,2.335848 -0.72992,2.189763c0.073006,0.146085 -18.539977,-0.583836 -18.612982,-0.729921c0.073005,0.146085 0.437965,-7.153124 0.36496,-7.299209c0.073005,0.146085 -13.430531,-1.313757 -13.503536,-1.459841c0.073005,0.146084 0.073005,3.430728 0,3.284643l-47.006892,0.146085z" fill-opacity="null" stroke-opacity="null" stroke-width="1.5" stroke="null" fill="#5f00bf"/>
  <text xml:space="preserve" text-anchor="start" font-family="Helvetica, Arial, sans-serif" font-size="24" id="svg_80" y="1335.536302" x="1897.137325" fill-opacity="null" stroke-opacity="null" stroke-width="0" stroke="null" fill="#ff0000">HONR</text>
  <path id="svg_81" d="m1356.046936,1457.943999l53.43025,1.897726l0.36496,-6.569287l75.91177,2.919683l-2.189763,41.605489l-95.619633,-5.109446l0,9.488971l6.569288,0l-4.014565,99.269238c0.218935,0.292041 12.62759,1.751882 12.26263,1.751882c-0.364961,0 0.36496,-7.299208 0.146025,-7.591249c0.218935,0.292041 6.058302,1.021962 5.839367,0.729921c0.218935,0.292041 -1.970827,-22.700467 -2.189763,-22.992507c0.218936,0.29204 16.277195,0.29204 16.058259,0c0.218936,0.29204 -0.875945,-12.481576 -1.094881,-12.773616c0.218936,0.29204 7.518145,1.021961 7.518145,1.021961c0,0 0.36496,4.014565 0.146024,3.722525c0.218936,0.29204 18.101998,0.29204 17.883061,0c0.218937,0.29204 0.218937,22.554627 0,22.262586c0.218937,0.292041 -18.029085,-0.43788 -18.248021,-0.72992c0.218936,0.29204 1.678777,10.875893 1.459841,10.583852c0.218936,0.292041 67.371658,2.846764 67.15272,2.554723c0.218938,0.292041 -1.605864,38.977848 -1.824802,38.685806c0.218938,0.292042 -76.057795,-1.897721 -76.27673,-2.189763c0.218935,0.292042 -0.510986,11.240856 -0.729921,10.948813c0.218935,0.292043 -14.744443,-0.802839 -14.963378,-1.094881c0.218935,0.292042 1.313816,-11.751652 1.094881,-12.043694c0.218935,0.292042 -3.430669,0.292042 -3.649604,0c0.218935,0.292042 1.313816,-15.766218 1.094881,-16.058259c0.218935,0.292041 -12.55468,-0.43788 -12.773615,-0.729921c0.218935,0.292041 -0.146026,5.036527 -0.36496,4.744485c0.218934,0.292042 -49.415686,-0.802839 -49.634619,-1.094881c0.218933,0.292042 4.963419,-120.874826 4.963419,-120.874826c0,0 14.233457,1.094882 14.014523,0.802844c0.218934,0.292038 0.583894,-10.291815 0.364961,-10.583852c0.218933,0.292037 -4.890513,1.021958 -5.109446,0.72992l2.408696,-33.284323z" stroke-width="1.5" fill="#5f00bf"/>
  <text xml:space="preserve" text-anchor="start" font-family="Helvetica, Arial, sans-serif" font-size="24" id="svg_82" y="1609.037616" x="1345.098123" fill-opacity="null" stroke-opacity="null" stroke-width="0" stroke="null" fill="#ff0000">SCI</text>
  <path id="svg_83" d="m1339.988676,1232.033484l-0.583893,46.057947l6.569288,-0.729921l0,7.664169l20.802744,1.094881l6.569288,-7.664169l16.78818,0.36496l-3.649604,7.299209l-0.364961,5.109446l5.109446,0l4.014565,-5.474406l7.299209,0.36496l1.824802,-6.569288l72.627126,2.554723l0.36496,10.583853c-2.080294,0.875936 -9.87221,2.591265 -9.981702,10.018218c-0.109492,7.426953 1.98903,12.536399 11.295521,13.631281c4.653246,0.54744 5.930607,0.72992 10.761776,-4.73537c4.831169,-5.46529 2.668844,-5.702623 2.887783,-15.264525l-0.729921,-14.963378c0.218938,0.29203 14.452395,-0.07293 14.233457,-0.36496c0.218938,0.29203 0.218938,-7.372139 0,-7.664169l-8.029129,0.36496l-1.094882,-24.087388c0.218938,0.292029 -3.430666,-3.357576 -3.649604,-3.649604c0.218938,0.292028 1.313819,-11.386706 1.094881,-11.678734c0.218938,0.292028 -12.554677,-0.072932 -12.773615,-0.364961c0.218938,0.292029 -4.890509,-4.087497 -5.109446,-4.379525c0.218937,0.292028 -23.503491,-0.072932 -23.722428,-0.36496c0.218937,0.292028 0.583897,4.671553 0.36496,4.379525c0.218937,0.292028 -48.685763,-0.437893 -48.904698,-0.729921c0.218935,0.292028 0.218935,-5.182378 0,-5.474406c0.218935,0.292028 6.423263,-0.437893 6.423263,-0.437893c0,0 -0.36496,-7.664169 -0.583896,-7.956197c0.218936,0.292028 -22.408612,-1.897735 -22.408612,-1.532775c0,0.364961 0,13.868497 -0.218934,13.576469c0.218934,0.292028 -11.824761,2.11683 -12.043695,1.824802c0.218934,0.292028 -5.985393,-7.372141 -6.204327,-7.664169c0.218934,0.292028 -20.218851,0.292028 -20.437784,0c0.218933,0.292028 -0.510988,6.496356 -0.729921,6.204327l-7.810197,0.656989z" stroke-width="1.5" fill="#5f00bf"/>
  <text xml:space="preserve" text-anchor="start" font-family="Helvetica, Arial, sans-serif" font-size="24" id="svg_84" y="1264.879924" x="1394.002822" fill-opacity="null" stroke-opacity="null" stroke-width="0" stroke="null" fill="#ff0000">LRC</text>
  <path id="svg_86" d="m1058.823097,1341.156657l-0.072886,11.751662l4.014565,0l0.36496,67.51768l-3.649604,-0.36496l0.729921,12.773615l37.225964,0.729921l0,-13.868496l-5.109446,-0.36496l-0.729921,-22.992507l9.488971,-0.729921l0,-27.007072l-10.583853,0.729921l-0.729921,-16.78818l6.204327,0.36496l-0.36496,-12.773615l-36.788118,1.021953z" fill-opacity="null" stroke-opacity="null" stroke-width="1.5" stroke="null" fill="#5f00bf"/>
  <text transform="rotate(-91.03162384033203 1078.1065673828125,1384.6541748046877) " xml:space="preserve" text-anchor="start" font-family="Helvetica, Arial, sans-serif" font-size="24" id="svg_87" y="1392.98104" x="1050.793969" fill-opacity="null" stroke-opacity="null" stroke-width="0" stroke="null" fill="#ff0000">WPS</text>
  <path id="svg_88" d="m1118.67661,1352.835391l1.386954,30.364644l13.503536,0.729921l2.189762,47.444856l41.60549,-1.094882l-0.729921,-8.394089l4.744485,-1.824803l0,-25.54723l4.014565,-1.094881l-0.36496,-11.678734l17.883061,-6.204327l-1.094882,-16.058259l-17.5181,-5.474407l0,-13.138575l-4.379525,0c0.072889,0.292032 0.80281,-27.080001 0.80281,-27.080001c0,0 -4.014565,0 -4.087454,-0.292032c0.072889,0.292032 0.072889,-8.83198 0,-9.12401c0.072889,0.29203 -42.992443,-0.07293 -43.065331,-0.364961c0.072888,0.292031 1.167769,51.021533 1.094881,50.7295l-15.985371,-1.89773z" fill-opacity="null" stroke-opacity="null" stroke-width="1.5" stroke="null" fill="#5f00bf"/>
  <text xml:space="preserve" text-anchor="start" font-family="Helvetica, Arial, sans-serif" font-size="24" id="svg_89" y="1376.92278" x="1133.275028" fill-opacity="null" stroke-opacity="null" stroke-width="0" stroke="null" fill="#ff0000">DSB</text>
  <path id="svg_91" d="m1113.567164,1531.666009l-0.437848,-19.999902l25.912191,0l2.189763,-2.554723l15.328338,-0.36496l1.824802,4.014565l24.817309,-0.729921l1.094881,20.072824l-70.729436,-0.437882z" fill-opacity="null" stroke-opacity="null" stroke-width="1.5" stroke="null" fill="#5f00bf"/>
  <text xml:space="preserve" text-anchor="start" font-family="Helvetica, Arial, sans-serif" font-size="24" id="svg_92" y="1552.468754" x="1114.662045" fill-opacity="null" stroke-opacity="null" stroke-width="0" stroke="null" fill="#ff0000">BH</text>
  <path id="svg_94" d="m865.10212,2223.99606l10.218893,-41.970451c-0.364961,0 20.072824,6.569288 19.926925,6.277137c0.145899,0.292151 -8.978112,41.16772 -9.124011,40.875569l-21.021807,-5.182255z" fill-opacity="null" stroke-opacity="null" stroke-width="1.5" stroke="null" fill="#5f00bf"/>
  <path id="svg_95" d="m911.817057,2209.397642l4.963547,-21.459856l17.518101,4.379525l-3.649604,20.802745l-18.832043,-3.722414z" fill-opacity="null" stroke-opacity="null" stroke-width="1.5" stroke="null" fill="#5f00bf"/>
  <text xml:space="preserve" text-anchor="start" font-family="Helvetica, Arial, sans-serif" font-size="24" id="svg_96" y="2206.477959" x="821.306867" fill-opacity="null" stroke-opacity="null" stroke-width="0" stroke="null" fill="#ff0000">UP</text>
  <text xml:space="preserve" text-anchor="start" font-family="Helvetica, Arial, sans-serif" font-size="24" id="svg_97" y="2211.222444" x="953.422547" fill-opacity="null" stroke-opacity="null" stroke-width="0" stroke="null" fill="#ff0000">HARR</text>
  <path id="svg_98" d="m1722.842424,785.764461c0,-0.364963 2.554738,-46.350249 2.335777,-46.7152c0.218961,0.364951 26.86123,1.094876 26.64227,0.729925c0.218961,0.364951 -0.875927,45.620312 -1.094888,45.255362c0.218961,0.36495 -27.883159,1.094875 -27.883159,0.729912z" fill-opacity="null" stroke-opacity="null" stroke-width="1.5" stroke="null" fill="#5f00bf"/>
  <path id="svg_99" d="m1771.747411,783.939648c0,-0.364963 31.386783,0 31.167824,-0.36495c0.218959,0.36495 -0.146003,62.043628 -0.364963,61.678679c0.21896,0.364949 -30.802861,-0.000014 -31.021821,-0.364962c0.21896,0.364948 0.21896,-60.583804 0.21896,-60.948767z" fill-opacity="null" stroke-opacity="null" stroke-width="1.5" stroke="null" fill="#5f00bf"/>
  <path id="svg_100" d="m1819.557511,742.333912l0.146003,6.569339l-13.503616,0.364963l0,6.934289l12.408728,-1.094888c0.21896,0.364951 0.583922,8.029165 0.583922,8.029165c0,0 46.35025,0.364963 46.131291,0.000013c0.218959,0.36495 0.218959,-19.707993 0,-20.072943l-45.766328,-0.729938z" fill-opacity="null" stroke-opacity="null" stroke-width="1.5" stroke="null" fill="#5f00bf"/>
  <text transform="rotate(-89.64906311035156 1738.4842529296877,762.8504028320312) " xml:space="preserve" text-anchor="start" font-family="Helvetica, Arial, sans-serif" font-size="24" id="svg_101" y="771.165957" x="1723.207388" fill-opacity="null" stroke-opacity="null" stroke-width="0" stroke="null" fill="#ff0000">VA</text>
  <text transform="rotate(-89.7344741821289 1787.9686279296875,814.6741333007812) " xml:space="preserve" text-anchor="start" font-family="Helvetica, Arial, sans-serif" font-size="24" id="svg_102" y="822.990645" x="1770.652521" fill-opacity="null" stroke-opacity="null" stroke-width="0" stroke="null" fill="#ff0000">HC</text>
  <text xml:space="preserve" text-anchor="start" font-family="Helvetica, Arial, sans-serif" font-size="24" id="svg_103" y="762.406857" x="1823.937062" fill-opacity="null" stroke-opacity="null" stroke-width="0" stroke="null" fill="#ff0000">GH</text>
 </g>
</svg>
