<svg width="1000" height="625" xmlns="http://www.w3.org/2000/svg">
 <!-- Created with Method Draw - http://github.com/duopixel/Method-Draw/ -->

 <g>
  <title>background</title>
  <rect fill="#f7f7fc" id="canvas_background" height="627" width="1002" y="-1" x="-1"/>
  <g display="none" overflow="visible" y="0" x="0" height="100%" width="100%" id="canvasGrid">
   <rect fill="url(#gridpattern)" stroke-width="0" y="0" x="0" height="100%" width="100%"/>
  </g>
 </g>
 <g>
  <title>Layer 1</title>
  <path id="svg_2" d="m271.925029,41.988424c0,0 49.98622,3.998898 49.98622,3.998898c0,0 0.499862,25.492972 0.499862,25.492972c0,0 8.99752,-0.499862 8.99752,-0.499862c0,0 -0.499862,31.491318 -0.499862,31.491318c0,0 -17.995039,1.999449 -17.995039,1.999449c0,0 -30.491594,0.499862 -30.491594,0.499862c0,0 -13.496279,-0.499862 -13.496279,-0.499862c0,0 2.999173,-62.482775 2.999173,-62.482775z" stroke-width="1.5" stroke="#000" fill="#f70202"/>
  <path id="svg_5" d="m67.981253,350.903262" opacity="0.5" fill-opacity="null" stroke-opacity="null" stroke-width="0" stroke="#000" fill="#000000"/>
  <path id="svg_8" d="m238.934124,539.35131c0,0 -4.49876,23.493523 -4.49876,23.493523c0,0 18.994763,4.998622 18.994763,4.998622" opacity="0.5" fill-opacity="null" stroke-opacity="null" stroke-width="0" stroke="#000" fill="#000000"/>
  <path id="svg_9" d="m238.934124,541.350758" opacity="0.5" fill-opacity="null" stroke-opacity="null" stroke-width="0" stroke="#000" fill="#000000"/>
  <path id="svg_10" d="m20.994206,349.503654" opacity="0.5" fill-opacity="null" stroke-opacity="null" stroke-width="0" stroke="#000" fill="#000000"/>
  <path id="svg_11" d="m69.480839,350.503378c0,0 32.491043,30.991456 32.990905,30.991456c0.499862,0 15.99559,-0.999724 15.99559,-0.999724c0,0 2.499311,-29.49187 2.499311,-29.49187c0,0 -51.485806,-0.499862 -51.485806,-0.499862z" stroke-opacity="null" stroke-width="0" stroke="#000" fill="#f90404"/>
  <path id="svg_13" d="m238.93412,540.45101c0,0 -4.49876,22.4938 -4.49876,22.4938c0,0 23.49353,5.49849 23.49353,5.49849c0,0 6.99807,-35.49022 6.99807,-35.49022c0,0 9.49738,0 9.49738,0c0,0 1.49959,-15.99559 0.99973,-16.09557c0.49986,0.09998 -34.4905,-2.39933 -34.4905,-2.39933c0,0 -1.49958,9.49738 -1.49958,9.49738c0,0 14.99586,3.49904 14.49601,3.39906c0.49985,0.09998 -2.99918,15.09584 -2.99918,15.09584c0,0 -11.9967,-1.99945 -11.9967,-1.99945z" stroke-opacity="null" stroke-width="0" stroke="#000" fill="#f90202"/>
  <path id="svg_17" d="m288.920343,522.955836c0,0 12.496555,1.999449 12.496555,1.999449c0,0 -4.998622,32.990905 -5.498478,32.890926c0.499856,0.099979 -13.496285,-3.399057 -13.996141,-3.499035c0.499856,0.099979 6.998065,-31.39134 6.998065,-31.39134z" stroke-opacity="null" stroke-width="0" stroke="#000" fill="#f90202"/>
  <path id="svg_19" d="m540.051123,380.994972c0,0 -11.996693,37.489665 -11.996693,37.489665c0,0 33.990629,8.99752 33.990629,8.99752c0,0 10.497106,-36.989803 10.497106,-36.989803c0,0 -32.491043,-9.497382 -32.491043,-9.497382z" stroke-opacity="null" stroke-width="0" stroke="#000" fill="#f90000"/>
  <path id="svg_57" d="m583.36349,412.408972c0.5,0 15.999996,0.5 15.636357,0.090922c0.363639,0.409078 0.863639,-21.590917 0.5,-21.999994c0.363639,0.409077 13.863635,-1.090922 13.863635,-1.090922c0,0 0,-13.999997 -0.363639,-14.409074c0.363639,0.409077 -16.636356,0.409077 -16.999996,0c0.36364,0.409077 -15.636356,24.409071 -15.999995,23.999994c0.363639,0.409077 2.863638,13.409074 3.363638,13.409074z" stroke-opacity="null" stroke-width="0" stroke="#000" fill="#f90404"/>
  <path id="svg_25" d="m624.027972,338.006823c0,0 0,16.495452 0,16.495452c0,0 43.488011,0 43.28806,-0.099979c0.199951,0.099979 0.199951,-15.895612 0.199951,-15.895612c0,0 -43.488011,-0.499862 -43.488011,-0.499862z" stroke-opacity="null" stroke-width="0" stroke="#000" fill="#f70202"/>
  <path id="svg_28" d="m699.10728,299.517434l0.699795,64.882107l35.490216,21.993937c0.29993,0.099979 24.793177,-0.399883 24.793177,-0.399883c0,0 0.499862,-46.987046 0.499862,-46.987046c0,0 -32.491043,-36.989803 -32.491043,-36.989803c0,0 -1.499587,1.999449 -28.992007,-2.499311z" stroke-width="0" stroke="#ffffff" fill="#f90202"/>
  <path stroke="#ffffff" id="svg_33" d="m735.59722,249.35231c0.499862,0 19.994488,37.450203 19.994488,37.450203c0,0 57.984015,4.617148 57.684085,4.617148c0.29993,0 6.298276,0 6.298276,0c0,0 1.999449,-51.814664 1.699519,-51.814664c0.29993,0 -83.177057,-6.669214 -83.177057,-6.669214c0,0 -2.999173,16.416527 -2.499311,16.416527z" stroke-opacity="null" stroke-width="0" fill="#f90404"/>
  <path id="svg_35" d="m869.560258,359.500898c0,0 36.989803,129.964171 36.989803,129.964171c0,0 27.992283,-8.497657 27.692384,-8.597636c0.299899,0.099979 0.799762,-83.377008 0.799762,-83.377008c0,0 -13.496279,-53.485255 -13.496279,-53.485255c0,0 -51.985668,15.495728 -51.985668,15.495728z" stroke-opacity="null" stroke-width="0" stroke="#ffffff" fill="#fc0202"/>
  <path id="svg_37" d="m526.854749,202.944052c0,0 -1.999449,52.985393 -1.999449,52.985393c0,0 47.986771,1.499587 47.986771,1.499587c0,0 1.999449,-52.985393 1.999449,-52.985393c0,0 -47.986771,-1.499587 -47.986771,-1.499587z" stroke-opacity="null" stroke-width="0" stroke="#ffffff" fill="#fc0505"/>
  <path id="svg_39" d="m458.87349,58.983739c0,0 55.484704,1.499587 55.484704,1.499587c0,0 0,-3.499035 0.499862,-3.499035c0.499862,0 37.989527,0.999724 37.989527,0.999724c0,0 -1.499587,48.986495 -1.499587,48.986495c0,0 -37.989527,-0.999724 -37.989527,-0.999724c0,0 -1.499587,25.992834 -1.499587,25.992834c0,0 -49.486357,0 -49.486357,0c0,0 0.999724,-16.495452 0.999724,-16.495452c0,0 5.498484,0 4.998628,0c0.499856,0 2.499305,-25.492972 2.499305,-25.492972c0,0 -13.996141,-0.499862 -14.495998,-0.499862c0.499856,0 2.499305,-30.491594 2.499305,-30.491594z" stroke-opacity="null" stroke-width="0" stroke="#ffffff" fill="#ff0000"/>
  <path id="svg_41" d="m400.889475,160.455765c0,0 -0.999724,16.495452 -1.499581,16.495452c0.499856,0 44.987592,0 44.987592,0c0,0 -0.999724,-15.99559 -1.499581,-15.99559c0.499856,0 -41.98843,-0.499862 -41.98843,-0.499862z" stroke-opacity="null" stroke-width="0" stroke="#ffffff" fill="#f90404"/>
  <path id="svg_44" d="m113.461337,37.987036" opacity="0.5" fill-opacity="null" stroke-opacity="null" stroke-width="0" stroke="#ffffff" fill="#ffffff"/>
  <path id="svg_45" d="m114.961167,38.486866c0,0 -0.999659,21.492676 -0.999659,21.492676c0,0 45.484501,-0.999659 45.484501,-0.999659c0,0 0.49983,-30.98944 0.49983,-30.98944c0,0 -44.984671,10.496423 -44.984671,10.496423z" stroke-opacity="null" stroke-width="0" stroke="#ffffff" fill="#f90404"/>
  <path id="svg_47" d="m104.964232,131.455186c0,0 0.49983,-29.98978 0.49983,-29.98978c0,0 -22.492335,-0.49983 -22.492337,-0.999643c0.000002,0.499813 -0.499828,-9.99661 -0.499828,-9.99661c0,0 22.992165,-1.499489 22.992163,-1.999302c0.000002,0.499813 0.000002,-4.998314 0.000002,-4.998314c0,0 -29.489951,-0.999659 -29.489953,-1.499472c0.000002,0.499813 0.499832,8.996917 0.49983,8.497105c0.000002,0.499812 -24.991482,0.999642 -24.991482,0.999642c0,0 0.49983,12.995572 0.49983,12.995572c0,0 23.991824,-0.49983 23.991824,-0.49983c0,0 4.998297,5.997956 4.998297,5.997956c0,0 -0.49983,20.992847 -0.499832,20.493033c0.000002,0.499814 24.491656,0.999643 24.491656,0.999643z" stroke-opacity="null" stroke-width="0" stroke="#ffffff" fill="#ff0000"/>
  <path id="svg_50" d="m71.475644,17.993849l-0.499831,17.494057l11.995912,-1.499489c0.000002,0.499812 -1.499487,-16.994227 -1.499487,-16.994227c0,0 -2.998978,0.999659 -9.996594,0.999659z" stroke-opacity="null" stroke-width="0" stroke="#ffffff" fill="#ff0000"/>
  <path id="svg_52" d="m108.96287,435.551575c0,0 0,9.996594 0,9.996594c0,0 35.487907,0.49983 35.487907,0.49983c0,0 0.999659,-9.996594 0.999656,-10.196529c0.000004,0.199936 -36.487563,-0.299894 -36.487563,-0.299894z" stroke-opacity="null" stroke-width="0" stroke="#ffffff" fill="#f90000"/>
  <path id="svg_53" d="m91.468831,466.041185l0.499828,15.294783c0.000002,0.199937 22.492337,-0.799722 22.492337,-0.799722c0,0 -0.499829,-8.497105 -0.499832,-8.697041c0.000003,0.199936 -5.498124,0.199936 -5.498126,0" stroke-opacity="null" stroke-width="0" stroke="#ffffff" fill="#f90404"/>
  <path id="svg_56" d="m581.36349,412.408972" opacity="0.5" stroke-opacity="null" stroke-width="0" stroke="#000" fill="#f90404"/>
  <text xml:space="preserve" text-anchor="start" font-family="Helvetica, Arial, sans-serif" font-size="12" id="svg_59" y="25.999858" x="70.9996" fill-opacity="null" stroke-opacity="null" stroke-width="0" stroke="#ffffff" fill="#000000">R</text>
  <text xml:space="preserve" text-anchor="start" font-family="Helvetica, Arial, sans-serif" font-size="12" id="svg_60" y="50.499724" x="133.999255" fill-opacity="null" stroke-opacity="null" stroke-width="0" stroke="#ffffff" fill="#000000">MT</text>
  <text xml:space="preserve" text-anchor="start" font-family="Helvetica, Arial, sans-serif" font-size="12" id="svg_61" y="113.499379" x="87.999507" fill-opacity="null" stroke-opacity="null" stroke-width="0" stroke="#ffffff" fill="#000000">FV</text>
  <text xml:space="preserve" text-anchor="start" font-family="Helvetica, Arial, sans-serif" font-size="12" id="svg_62" y="75.499587" x="285.998424" fill-opacity="null" stroke-opacity="null" stroke-width="0" stroke="#ffffff" fill="#000000">GL</text>
  <text xml:space="preserve" text-anchor="start" font-family="Helvetica, Arial, sans-serif" font-size="12" id="svg_63" y="83.499543" x="497.497267" fill-opacity="null" stroke-opacity="null" stroke-width="0" stroke="#ffffff" fill="#000000">LS</text>
  <text xml:space="preserve" text-anchor="start" font-family="Helvetica, Arial, sans-serif" font-size="12" id="svg_64" y="171.499062" x="413.997724" fill-opacity="null" stroke-opacity="null" stroke-width="0" stroke="#ffffff" fill="#000000">CG</text>
  <text stroke="#ffffff" xml:space="preserve" text-anchor="start" font-family="Helvetica, Arial, sans-serif" font-size="12" id="svg_65" y="224.99877" x="538.497043" fill-opacity="null" stroke-opacity="null" stroke-width="0" fill="#000000">GH</text>
  <text xml:space="preserve" text-anchor="start" font-family="Helvetica, Arial, sans-serif" font-size="12" id="svg_66" y="365.872999" x="97.499455" fill-opacity="null" stroke-opacity="null" stroke-width="0" stroke="#ffffff" fill="#000000">BS</text>
  <text xml:space="preserve" text-anchor="start" font-family="Helvetica, Arial, sans-serif" font-size="12" id="svg_67" y="443.372575" x="125.999299" fill-opacity="null" stroke-opacity="null" stroke-width="0" stroke="#ffffff" fill="#000000">IN</text>
  <text xml:space="preserve" text-anchor="start" font-family="Helvetica, Arial, sans-serif" font-size="12" id="svg_68" y="477.872387" x="98.499449" fill-opacity="null" stroke-opacity="null" stroke-width="0" stroke="#ffffff" fill="#000000">IS</text>
  <text xml:space="preserve" text-anchor="start" font-family="Helvetica, Arial, sans-serif" font-size="12" id="svg_69" y="525.372127" x="253.998599" fill-opacity="null" stroke-opacity="null" stroke-width="0" stroke="#ffffff" fill="#000000">PS</text>
  <text xml:space="preserve" text-anchor="start" font-family="Helvetica, Arial, sans-serif" font-size="12" id="svg_70" y="540.372045" x="289.998402" fill-opacity="null" stroke-opacity="null" stroke-width="0" stroke="#ffffff" fill="#000000">MS</text>
  <text xml:space="preserve" text-anchor="start" font-family="Helvetica, Arial, sans-serif" font-size="12" id="svg_71" y="404.372788" x="542.372022" fill-opacity="null" stroke-opacity="null" stroke-width="0" stroke="#ffffff" fill="#000000">EZ</text>
  <text xml:space="preserve" text-anchor="start" font-family="Helvetica, Arial, sans-serif" font-size="12" id="svg_72" y="395.372838" x="592.371748" fill-opacity="null" stroke-opacity="null" stroke-width="0" stroke="#ffffff" fill="#000000">RC</text>
  <text xml:space="preserve" text-anchor="start" font-family="Helvetica, Arial, sans-serif" font-size="12" id="svg_73" y="349.873087" x="644.871461" fill-opacity="null" stroke-opacity="null" stroke-width="0" stroke="#ffffff" fill="#000000">MG</text>
  <text xml:space="preserve" text-anchor="start" font-family="Helvetica, Arial, sans-serif" font-size="12" id="svg_74" y="347.3731" x="723.371032" fill-opacity="null" stroke-opacity="null" stroke-width="0" stroke="#ffffff" fill="#000000">SB</text>
  <text xml:space="preserve" text-anchor="start" font-family="Helvetica, Arial, sans-serif" font-size="12" id="svg_75" y="267.373538" x="769.870778" fill-opacity="null" stroke-opacity="null" stroke-width="0" stroke="#ffffff" fill="#000000">ML</text>
  <text xml:space="preserve" text-anchor="start" font-family="Helvetica, Arial, sans-serif" font-size="12" id="svg_76" y="395.872835" x="897.37008" fill-opacity="null" stroke-opacity="null" stroke-width="0" stroke="#ffffff" fill="#000000">RF</text>
 </g>
</svg>